<?xml version="1.0" standalone="no"?>
<!DOCTYPE svg PUBLIC "-//W3C//DTD SVG 20010904//EN"
 "http://www.w3.org/TR/2001/REC-SVG-20010904/DTD/svg10.dtd">
<svg version="1.0" xmlns="http://www.w3.org/2000/svg"
 width="600.000000pt" height="327.000000pt" viewBox="0 0 600.000000 327.000000"
 preserveAspectRatio="xMidYMid meet">
<g transform="translate(0.000000,327.000000) scale(0.100000,-0.100000)"
fill="#000000" stroke="none">
<path d="M3595 2600 c-49 -7 -145 -46 -145 -59 0 -3 4 -12 9 -20 8 -12 17 -11
58 6 100 43 190 38 281 -14 24 -14 50 -22 58 -19 26 10 14 35 -28 59 -75 43
-150 58 -233 47z m55 -20 c11 -7 5 -9 -23 -8 -24 1 -33 4 -25 9 17 11 30 11
48 -1z m45 -8 c-3 -3 -11 0 -18 7 -9 10 -8 11 6 5 10 -3 15 -9 12 -12z m115
-32 c24 -15 7 -19 -20 -5 -15 8 -19 14 -10 14 8 1 22 -3 30 -9z"/>
<path d="M3436 2505 c4 -8 11 -15 16 -15 6 0 5 6 -2 15 -7 8 -14 15 -16 15 -2
0 -1 -7 2 -15z"/>
<path d="M3615 2503 c-11 -2 -39 -11 -62 -19 -34 -13 -42 -20 -41 -38 l2 -23
56 19 c62 22 118 20 170 -6 44 -22 72 -21 68 2 -6 34 -134 77 -193 65z m154
-48 c3 -3 -7 -4 -23 -1 -16 3 -31 8 -35 11 -3 3 7 4 23 1 16 -3 31 -8 35 -11z"/>
<path d="M3416 2492 c-2 -4 4 -13 15 -20 22 -14 25 -7 5 14 -8 8 -17 11 -20 6z"/>
<path d="M3346 2447 c-43 -56 -73 -152 -54 -174 20 -25 35 -12 47 41 7 30 25
73 41 95 47 65 15 102 -34 38z m-25 -114 c-8 -15 -10 -15 -11 -2 0 17 10 32
18 25 2 -3 -1 -13 -7 -23z"/>
<path d="M3914 2435 c-3 -8 7 -40 22 -72 40 -82 40 -181 0 -270 -15 -34 -25
-66 -21 -72 35 -58 110 125 98 242 -6 58 -30 131 -54 161 -23 29 -37 33 -45
11z m61 -113 c-5 -5 -18 26 -29 68 -3 14 3 5 14 -19 11 -24 18 -46 15 -49z m1
-208 c-4 -9 -9 -15 -11 -12 -3 3 -3 13 1 22 4 9 9 15 11 12 3 -3 3 -13 -1 -22z"/>
<path d="M3480 2420 c0 -5 5 -10 10 -10 6 0 10 5 10 10 0 6 -4 10 -10 10 -5 0
-10 -4 -10 -10z"/>
<path d="M3414 2370 c-35 -52 -47 -173 -19 -183 27 -11 33 -1 33 53 0 35 8 67
26 101 14 28 23 55 20 60 -12 19 -35 7 -60 -31z m3 -42 c-3 -8 -6 -5 -6 6 -1
11 2 17 5 13 3 -3 4 -12 1 -19z m-7 -98 c0 -5 -5 -10 -11 -10 -5 0 -7 5 -4 10
3 6 8 10 11 10 2 0 4 -4 4 -10z"/>
<path d="M3597 2396 c-74 -27 -117 -88 -117 -166 0 -24 21 -96 51 -177 28 -76
54 -157 57 -180 2 -24 7 -43 11 -43 3 0 13 12 22 28 9 15 52 84 97 155 44 70
85 148 91 173 20 78 -5 148 -67 188 -48 32 -98 39 -145 22z m110 -22 c13 -4
20 -10 17 -15 -3 -5 0 -9 6 -9 21 0 42 -31 56 -83 17 -64 17 -70 2 -61 -7 5
-9 2 -5 -8 3 -9 -1 -27 -8 -41 -7 -14 -11 -28 -7 -31 3 -3 0 -6 -7 -6 -7 0
-10 -4 -7 -9 7 -10 -22 -24 -33 -16 -5 2 -6 -6 -4 -19 3 -14 -4 -33 -20 -52
-13 -16 -34 -48 -46 -72 -31 -61 -50 -53 -73 33 -11 38 -24 75 -29 82 -6 7 -7
18 -3 24 4 8 3 9 -4 5 -8 -5 -12 0 -12 13 0 11 -5 23 -11 27 -6 3 -9 17 -6 30
2 13 0 21 -5 18 -13 -8 -7 87 8 116 13 26 51 63 75 73 19 8 89 8 116 1z"/>
<path d="M3618 2353 c7 -3 16 -2 19 1 4 3 -2 6 -13 5 -11 0 -14 -3 -6 -6z"/>
<path d="M3661 2343 c7 -7 17 -12 23 -10 6 3 23 -7 39 -21 15 -14 27 -21 27
-16 0 17 -45 51 -73 56 -22 4 -25 3 -16 -9z"/>
<path d="M3609 2322 c-52 -25 -69 -46 -69 -86 0 -20 3 -36 8 -36 4 0 14 -13
23 -29 16 -27 21 -29 78 -29 33 0 59 3 57 7 -6 9 21 31 28 23 4 -3 4 2 0 12
-5 13 -4 17 3 13 7 -5 10 5 9 28 -1 19 2 35 7 35 4 0 5 5 2 11 -4 6 -10 8 -13
5 -3 -3 -11 3 -19 13 -10 15 -69 53 -77 51 -1 -1 -17 -8 -37 -18z m92 -33 c49
-49 -1 -151 -65 -135 -94 24 -85 156 11 156 20 0 41 -8 54 -21z"/>
<path d="M3761 2234 c0 -11 3 -14 6 -6 3 7 2 16 -1 19 -3 4 -6 -2 -5 -13z"/>
<path d="M3834 2377 c-3 -8 4 -35 16 -61 26 -61 25 -115 -1 -171 -32 -67 -11
-101 30 -49 45 57 48 183 6 264 -16 31 -42 40 -51 17z m43 -42 c0 -8 -4 -12
-9 -9 -5 3 -6 10 -3 15 9 13 12 11 12 -6z m20 -127 c-3 -7 -5 -2 -5 12 0 14 2
19 5 13 2 -7 2 -19 0 -25z m-17 -82 c0 -3 -4 -8 -10 -11 -5 -3 -10 -1 -10 4 0
6 5 11 10 11 6 0 10 -2 10 -4z"/>
<path d="M3261 2314 c0 -11 3 -14 6 -6 3 7 2 16 -1 19 -3 4 -6 -2 -5 -13z"/>
<path d="M2816 2284 c-146 -35 -298 -161 -362 -298 -19 -42 -40 -102 -46 -134
-21 -116 8 -306 69 -451 l19 -44 29 59 c17 32 55 85 87 116 l56 58 -19 50
c-24 63 -26 160 -5 219 28 76 91 148 164 185 25 13 32 22 27 34 -4 12 -3 14 4
7 6 -6 55 -9 115 -8 81 1 107 -2 117 -13 6 -8 16 -14 21 -14 5 0 29 -14 54
-31 49 -33 49 -33 58 44 3 29 2 47 -5 47 -5 0 -32 -12 -60 -26 -28 -14 -53
-23 -56 -20 -3 3 20 17 51 33 31 15 56 30 56 33 0 11 -205 71 -208 61 -2 -6
-14 -11 -26 -11 -16 0 -33 -15 -57 -50 -30 -44 -49 -61 -49 -45 0 3 19 31 42
62 22 31 35 54 27 51 -177 -71 -201 -83 -174 -86 15 -2 31 2 35 8 4 7 22 14
39 16 42 5 42 -25 1 -49 -28 -17 -31 -17 -70 3 -23 12 -47 19 -53 17 -7 -2 13
-16 43 -31 38 -18 46 -24 25 -20 -16 3 -38 6 -47 7 -9 1 -14 5 -12 9 5 8 -19
11 -27 3 -3 -2 -2 -29 1 -60 7 -62 0 -75 -44 -76 -29 0 -29 -1 -8 -9 12 -5 22
-12 22 -15 0 -4 -5 -3 -12 1 -8 5 -9 2 -5 -10 5 -11 3 -15 -5 -10 -7 5 -9 2
-6 -8 4 -8 2 -21 -3 -29 -7 -12 -9 -11 -9 2 0 9 -6 22 -14 29 -8 6 -12 19 -9
27 4 11 2 14 -5 9 -18 -11 -15 -24 13 -60 14 -18 25 -38 25 -44 0 -24 -16 -11
-40 33 -14 25 -27 45 -31 45 -12 0 -48 -165 -38 -174 5 -6 9 -20 9 -32 0 -23
25 -40 35 -23 4 5 1 8 -6 7 -24 -5 -21 30 3 38 43 14 50 13 45 -7 -3 -12 0
-19 9 -19 15 0 17 -14 5 -45 -5 -11 -4 -25 1 -32 7 -9 6 -19 -3 -30 -13 -16
-12 -17 4 -4 11 9 15 21 12 35 -6 20 -5 20 6 2 10 -16 6 -23 -25 -52 -21 -19
-43 -31 -49 -28 -7 4 -9 4 -5 0 9 -10 -12 -67 -22 -61 -7 5 -23 -31 -21 -47 2
-15 -7 -8 -24 18 -9 15 -19 41 -22 58 -3 17 -9 38 -14 47 -22 42 -36 243 -20
304 21 83 44 137 52 123 6 -9 9 -5 9 14 0 15 7 33 15 42 8 8 15 18 15 21 0 13
88 96 92 88 22 -40 -31 -154 -74 -160 -13 -2 -29 -11 -35 -20 -15 -20 -17 -53
-3 -53 6 0 10 -15 10 -32 0 -23 -3 -29 -9 -19 -7 10 -9 7 -8 -12 1 -14 5 -23
9 -21 12 8 28 78 20 84 -5 3 -11 13 -15 22 -7 20 28 49 49 41 8 -3 14 -1 14 4
0 5 14 29 32 53 21 29 31 53 30 71 -4 30 19 44 46 30 22 -11 242 76 242 95 0
20 32 34 53 23 9 -6 17 -16 17 -23 0 -14 170 -71 215 -71 20 0 31 -6 33 -18 5
-25 112 -122 132 -120 10 1 26 -7 35 -17 15 -17 16 -24 6 -43 -10 -19 -9 -41
4 -118 9 -51 21 -96 26 -97 15 -6 29 -40 23 -56 -4 -9 -18 -16 -33 -16 -30 0
-81 -46 -81 -73 0 -10 -8 -17 -19 -17 -24 0 -32 11 -22 29 5 7 2 29 -5 49 -16
45 -17 65 -4 57 6 -3 10 3 10 14 0 12 5 21 11 21 5 0 7 -4 4 -10 -6 -10 7 -14
31 -11 7 1 14 -7 16 -17 6 -23 -9 -55 -23 -47 -5 3 -6 -1 -3 -9 3 -9 1 -16 -5
-16 -6 0 -11 9 -11 20 0 11 -4 20 -9 20 -6 0 -6 -12 1 -30 l10 -31 34 33 c19
18 34 40 34 48 0 9 -24 30 -54 47 l-54 31 -6 -52 c-4 -29 -17 -75 -30 -102
l-23 -50 50 -49 c33 -32 62 -75 87 -128 l37 -79 26 74 c79 224 96 361 62 492
-50 192 -216 356 -406 401 -79 18 -195 18 -273 -1z m96 -43 c-20 -21 -39 -36
-41 -34 -2 1 -16 -4 -32 -12 -16 -9 -32 -15 -36 -14 -23 4 -43 -2 -38 -11 3
-5 -2 -10 -13 -10 -10 0 -21 -3 -25 -6 -9 -9 -107 -10 -107 -1 0 18 173 111
198 105 4 0 14 1 22 5 27 10 42 13 75 14 l33 1 -36 -37z m210 9 c31 -10 68
-26 82 -35 14 -10 26 -13 26 -9 0 5 5 1 11 -8 5 -10 15 -18 22 -18 16 -1 77
-57 77 -72 0 -6 3 -9 6 -5 7 7 47 -39 57 -64 5 -14 1 -16 -21 -9 -15 4 -26 12
-25 18 2 6 -4 9 -12 6 -14 -6 -20 7 -16 30 1 5 -4 4 -12 -2 -11 -9 -18 -8 -31
7 -10 11 -18 25 -19 33 -2 7 -10 24 -19 37 -13 18 -22 22 -42 17 -13 -3 -28
-2 -31 4 -3 5 -23 10 -43 10 -20 0 -46 7 -56 15 -11 8 -27 15 -35 15 -16 0
-61 38 -61 53 0 11 69 0 142 -23z m-99 -117 c15 -25 26 -48 23 -50 -4 -4 -66
81 -66 91 0 17 18 0 43 -41z m20 33 c3 3 17 -2 31 -11 14 -9 30 -14 36 -10 13
8 42 -14 34 -26 -3 -5 -12 -9 -20 -9 -9 0 -22 -7 -31 -15 -16 -17 -33 -12 -33
10 0 7 -7 16 -16 19 -8 3 -12 10 -9 16 3 5 2 10 -3 10 -6 0 -13 7 -16 16 -5
13 -4 14 7 6 8 -7 16 -9 20 -6z m-74 -22 c4 3 12 -4 19 -15 11 -18 9 -19 -33
-19 -51 0 -54 4 -22 34 15 14 23 17 25 8 2 -7 7 -10 11 -8z m-97 -7 c-4 -14
-7 -16 -13 -5 -12 19 -11 25 5 25 8 0 11 -8 8 -20z m75 -43 c-3 -3 -12 -4 -19
-1 -8 3 -5 6 6 6 11 1 17 -2 13 -5z m241 -44 c1 -34 -4 -36 -36 -14 -28 19
-28 28 1 41 29 14 34 10 35 -27z m-458 -1 c0 -5 5 -7 10 -4 6 3 10 1 10 -4 0
-6 -5 -11 -11 -11 -5 0 -7 -6 -3 -12 4 -7 4 -10 -1 -6 -4 4 -16 3 -26 -3 -16
-8 -19 -6 -19 15 0 22 10 33 33 35 4 1 7 -4 7 -10z m744 -184 c1 -24 3 -39 6
-35 3 5 6 -18 7 -50 1 -52 -1 -58 -14 -45 -8 8 -19 15 -24 15 -6 0 -9 8 -8 18
2 17 -1 32 -23 118 -7 31 -7 48 2 64 l12 23 21 -33 c11 -18 21 -50 21 -75z
m-894 -27 c24 -40 24 -42 3 -64 -16 -16 -16 -16 6 -9 21 6 22 5 12 -14 -7 -12
-14 -21 -17 -21 -3 0 -2 5 2 12 4 6 -3 4 -17 -5 -35 -25 -60 -22 -29 3 l25 20
-27 -9 c-26 -10 -26 -9 -16 22 5 18 14 47 19 65 6 17 12 32 15 32 2 0 13 -15
24 -32z m902 -185 c-5 -10 -12 -40 -16 -68 -3 -27 -10 -51 -15 -53 -6 -2 -7
-10 -4 -19 4 -10 2 -14 -4 -10 -7 5 -9 0 -6 -12 2 -10 -5 -38 -18 -62 -21 -43
-22 -43 -31 -19 -6 14 -11 30 -12 37 -1 7 -6 16 -11 20 -4 4 -5 2 -1 -4 17
-30 -4 -9 -29 29 -15 22 -38 51 -51 63 -21 20 -23 26 -13 54 11 33 35 45 24
12 -3 -10 -3 -26 1 -35 8 -21 53 -21 61 0 5 13 8 13 15 2 7 -9 8 -8 4 6 -4 12
1 27 15 43 24 25 49 30 49 11 0 -7 5 -5 11 5 6 9 14 15 20 12 5 -4 9 -1 9 6 0
7 3 10 6 7 3 -4 1 -15 -4 -25z"/>
<path d="M3280 2106 c0 -2 8 -10 18 -17 15 -13 16 -12 3 4 -13 16 -21 21 -21
13z"/>
<path d="M3455 1771 c-3 -5 -2 -12 3 -15 5 -3 9 1 9 9 0 17 -3 19 -12 6z"/>
<path d="M3272 2246 c7 -8 15 -12 17 -11 5 6 -10 25 -20 25 -5 0 -4 -6 3 -14z"/>
<path d="M3365 2171 c-3 -5 0 -13 6 -17 7 -4 9 -3 5 4 -3 5 0 13 6 15 9 4 10
6 1 6 -6 1 -14 -3 -18 -8z"/>
<path d="M3220 2062 c0 -78 4 -82 71 -82 32 0 59 4 59 9 0 10 -105 113 -121
119 -5 2 -9 -19 -9 -46z m78 -32 c6 0 14 -5 18 -12 4 -7 3 -8 -4 -4 -7 4 -12
1 -12 -9 0 -12 -7 -15 -27 -13 -24 3 -28 7 -28 36 0 17 -3 32 -8 32 -4 0 -5 5
-1 11 4 7 15 2 29 -15 12 -14 27 -26 33 -26z"/>
<path d="M3268 2003 c7 -3 16 -2 19 1 4 3 -2 6 -13 5 -11 0 -14 -3 -6 -6z"/>
<path d="M3779 2063 c-13 -16 -12 -17 4 -4 16 13 21 21 13 21 -2 0 -10 -8 -17
-17z"/>
<path d="M2620 2023 c-58 -80 -58 -77 -10 -70 23 3 45 9 49 14 4 4 4 30 1 56
l-5 49 -35 -49z m30 -32 c0 -10 -9 -21 -20 -24 -23 -6 -23 -6 -10 28 11 28 30
25 30 -4z"/>
<path d="M3810 2050 c0 -5 5 -10 11 -10 5 0 7 5 4 10 -3 6 -8 10 -11 10 -2 0
-4 -4 -4 -10z"/>
<path d="M3785 2030 c3 -5 8 -10 11 -10 2 0 4 5 4 10 0 6 -5 10 -11 10 -5 0
-7 -4 -4 -10z"/>
<path d="M3880 2005 c-7 -8 -9 -15 -4 -16 5 -1 -2 -5 -16 -9 -24 -8 -23 -8 7
-9 29 -1 33 2 31 24 -3 29 -2 29 -18 10z"/>
<path d="M3153 1967 c13 -13 25 -18 29 -13 8 13 0 28 -12 21 -5 -3 -11 -1 -15
5 -3 5 -10 10 -15 10 -5 0 1 -10 13 -23z"/>
<path d="M3233 1963 c-9 -3 -6 -17 11 -51 12 -26 29 -63 36 -82 14 -34 36 -59
54 -60 5 0 2 8 -7 18 -10 10 -17 25 -17 33 1 19 28 54 42 54 6 0 13 7 15 15 4
13 3 13 -7 0 -9 -12 -10 -10 -5 10 4 16 -7 4 -29 -30 -20 -30 -36 -47 -36 -39
0 8 15 39 34 69 19 30 32 58 30 62 -6 9 -101 10 -121 1z m96 -18 c-3 -22 -33
-74 -40 -70 -4 3 -16 21 -28 41 l-21 35 21 -6 c13 -4 19 -3 16 2 -4 6 7 10 23
9 17 -1 30 -6 29 -11z"/>
<path d="M2773 1953 c-15 -5 -18 -83 -4 -83 6 0 11 15 13 33 3 28 7 32 36 35
17 2 32 7 32 13 0 9 -55 11 -77 2z"/>
<path d="M3060 1951 c0 -6 15 -11 33 -13 28 -3 32 -7 35 -35 2 -18 7 -33 13
-33 13 0 11 64 -3 78 -14 14 -78 16 -78 3z"/>
<path d="M3196 1933 c-6 -14 -5 -15 5 -6 7 7 10 15 7 18 -3 3 -9 -2 -12 -12z"/>
<path d="M3366 1941 c-4 -6 -3 -19 2 -28 17 -33 22 -83 9 -83 -7 -1 -5 -6 6
-14 9 -7 17 -23 17 -36 0 -19 -4 -21 -27 -16 l-28 7 25 -21 c33 -26 40 -25 40
8 0 29 -28 183 -34 190 -2 2 -7 -1 -10 -7z"/>
<path d="M2899 1877 c-51 -19 -105 -54 -128 -83 -10 -13 -29 -24 -41 -24 -16
0 -20 -4 -16 -15 3 -8 0 -15 -6 -15 -6 0 -8 -3 -5 -6 4 -4 12 -2 19 3 12 9 28
9 94 5 18 -2 55 -52 38 -52 -3 0 -19 11 -36 25 -41 35 -58 31 -23 -5 71 -74
183 -91 270 -41 28 16 57 36 64 45 23 28 -22 20 -49 -9 -27 -28 -52 -35 -27
-7 10 10 17 24 17 30 0 13 7 14 79 16 44 1 74 26 31 26 -12 0 -32 13 -46 29
-28 34 -112 77 -164 85 -19 3 -51 0 -71 -7z m96 -32 c18 -9 37 -27 44 -41 14
-32 14 -34 -4 -34 -8 0 -15 5 -15 10 0 6 -8 5 -20 -2 -28 -18 -50 4 -32 32 11
18 10 20 -13 20 -25 0 -65 -31 -65 -50 0 -5 -7 -10 -15 -10 -18 0 -18 2 -4 34
10 22 59 55 82 56 5 0 24 -7 42 -15z m-143 -27 c-7 -7 -12 -20 -12 -30 0 -10
-6 -18 -14 -18 -8 0 -23 -3 -33 -6 -11 -4 -2 10 21 34 22 23 42 39 45 37 2 -3
-1 -11 -7 -17z m238 -13 l34 -35 -27 0 c-20 0 -27 5 -27 19 0 11 -4 23 -10 26
-9 6 -14 25 -7 25 2 0 18 -16 37 -35z m-139 -25 c1 -8 1 -18 0 -22 0 -5 13 -8
29 -8 38 0 39 -17 3 -27 -32 -8 -53 -6 -71 10 -11 9 -9 14 10 29 13 10 17 17
9 16 -7 -2 -15 2 -18 9 -2 7 4 11 16 10 12 -1 22 -8 22 -17z m87 -62 c-30 -36
-42 -43 -77 -46 -35 -3 -46 2 -71 27 -17 16 -30 34 -30 40 0 18 28 12 34 -7
16 -51 98 -52 123 -2 7 14 13 21 13 17 0 -4 8 -3 18 2 28 17 27 13 -10 -31z"/>
<path d="M3097 1859 c7 -7 15 -10 18 -7 3 3 -2 9 -12 12 -14 6 -15 5 -6 -5z"/>
<path d="M3261 1794 c0 -11 3 -14 6 -6 3 7 2 16 -1 19 -3 4 -6 -2 -5 -13z"/>
<path d="M2490 1790 c0 -6 -11 -22 -25 -36 -25 -25 -25 -25 -3 -19 13 4 23 8
24 9 5 5 13 56 9 56 -3 0 -5 -5 -5 -10z"/>
<path d="M2444 1678 c1 -6 11 -16 22 -22 10 -6 22 -15 26 -21 5 -6 8 -5 8 3 0
7 -11 17 -24 22 -13 5 -26 14 -29 20 -3 6 -5 6 -3 -2z"/>
<path d="M2521 1645 c15 -16 32 -40 38 -52 6 -13 17 -23 24 -22 9 0 9 2 0 6
-7 2 -13 10 -13 17 0 7 -17 28 -37 47 -33 29 -34 30 -12 4z"/>
<path d="M2553 1647 c-3 -6 -1 -7 5 -3 7 4 12 1 12 -8 0 -9 4 -16 9 -16 6 0 9
8 8 18 -1 20 -24 25 -34 9z"/>
<path d="M2760 1621 c0 -44 7 -51 56 -58 26 -4 34 -1 34 11 0 12 -10 16 -35
16 -32 0 -35 2 -35 29 0 17 -4 33 -10 36 -6 4 -10 -10 -10 -34z"/>
<path d="M3138 1654 c-5 -4 -8 -20 -8 -36 0 -25 -3 -28 -35 -28 -25 0 -35 -4
-35 -15 0 -13 7 -15 38 -9 49 9 54 14 50 59 -2 20 -6 33 -10 29z"/>
<path d="M2641 1505 c-58 -54 -109 -151 -118 -222 -3 -29 -10 -53 -14 -53 -5
0 -9 -4 -9 -9 0 -5 13 -3 29 5 21 11 31 24 36 52 12 65 57 145 111 198 39 38
49 55 41 63 -17 17 -25 14 -76 -34z"/>
<path d="M3184 1525 c-4 -9 10 -31 36 -57 53 -54 99 -145 107 -209 6 -54 24
-86 41 -75 28 17 -2 154 -51 230 -31 50 -104 126 -119 126 -5 0 -11 -7 -14
-15z m121 -115 c3 -5 1 -10 -4 -10 -6 0 -11 5 -11 10 0 6 2 10 4 10 3 0 8 -4
11 -10z"/>
<path d="M3030 1519 c0 -5 5 -7 10 -4 6 3 10 8 10 11 0 2 -4 4 -10 4 -5 0 -10
-5 -10 -11z"/>
<path d="M2709 1451 c-51 -45 -94 -118 -104 -176 -3 -22 -8 -51 -11 -63 -3
-16 -1 -21 7 -17 8 6 8 2 0 -14 -14 -25 -23 -28 -14 -4 5 13 2 15 -11 10 -10
-4 -23 -7 -30 -7 -13 0 -46 -50 -46 -70 0 -10 3 -10 14 0 8 6 12 18 9 27 -5
13 -3 13 15 4 23 -12 60 -2 81 22 7 9 19 45 26 81 18 85 37 119 97 177 46 45
55 69 24 69 -7 0 -33 -18 -57 -39z"/>
<path d="M3112 1478 c-8 -8 2 -24 43 -65 63 -63 95 -136 95 -218 0 -42 5 -59
23 -78 30 -34 73 -43 86 -18 12 22 5 31 -24 31 -34 0 -42 18 -47 95 -5 88 -35
151 -100 216 -53 53 -58 55 -76 37z m118 -118 c6 -11 8 -20 6 -20 -3 0 -10 9
-16 20 -6 11 -8 20 -6 20 3 0 10 -9 16 -20z"/>
<path d="M2871 1449 c-41 -13 -99 -49 -128 -80 -31 -34 -63 -108 -63 -149 0
-60 -29 -103 -80 -120 -57 -20 -61 -45 -8 -44 73 2 115 49 128 142 9 63 36
127 66 153 101 89 267 74 339 -31 34 -50 45 -91 45 -178 0 -67 2 -76 28 -102
44 -43 132 -54 132 -16 0 10 -14 18 -37 22 -74 13 -83 25 -83 112 0 96 -22
162 -73 214 -67 69 -183 102 -266 77z"/>
<path d="M2861 1353 c-59 -31 -92 -82 -101 -157 -12 -96 -43 -138 -127 -176
-45 -20 -54 -36 -27 -47 21 -8 107 33 138 66 33 34 56 91 56 138 0 113 114
186 210 134 55 -29 75 -73 73 -156 -1 -38 0 -85 3 -103 8 -50 57 -99 117 -117
69 -20 79 -19 75 7 -2 17 -12 24 -40 29 -43 7 -83 31 -99 60 -6 12 -12 65 -13
118 -2 113 -16 148 -77 188 -53 35 -138 42 -188 16z"/>
<path d="M2910 1283 c-32 -12 -60 -48 -65 -82 -22 -134 -57 -194 -141 -238
-34 -18 -54 -35 -54 -45 0 -24 22 -22 78 6 86 44 137 120 152 228 7 45 15 68
31 81 27 22 41 22 70 -2 30 -24 29 -91 -1 -181 -31 -92 -95 -176 -167 -221
-33 -21 -42 -42 -23 -54 15 -9 103 49 140 92 l31 35 48 -45 c53 -49 106 -81
121 -72 20 12 9 32 -29 53 -43 24 -111 95 -110 115 0 6 4 21 8 32 7 18 9 18
24 -10 24 -47 79 -94 134 -115 42 -16 53 -17 62 -6 13 16 4 24 -56 50 -89 39
-129 112 -119 217 7 71 -5 121 -37 147 -18 15 -75 24 -97 15z m101 -216 c-10
-9 -11 -8 -5 6 3 10 9 15 12 12 3 -3 0 -11 -7 -18z m13 -33 c8 -22 8 -24 -7
-24 -7 0 -13 9 -14 20 -2 24 12 27 21 4z m-45 -105 c12 -20 11 -21 -4 -15 -10
3 -24 1 -31 -5 -12 -10 -13 -9 -8 5 3 9 10 16 16 16 5 0 6 5 3 10 -3 6 -2 10
2 10 5 0 14 -10 22 -21z"/>
<path d="M2926 1188 c-3 -7 -7 -34 -10 -60 -11 -94 -82 -195 -166 -238 -39
-20 -51 -42 -30 -55 17 -10 110 47 147 90 19 22 45 60 58 85 25 50 48 151 39
175 -7 18 -33 20 -38 3z"/>
<path d="M2476 1105 c-3 -8 -1 -15 4 -15 6 0 10 7 10 15 0 8 -2 15 -4 15 -2 0
-6 -7 -10 -15z"/>
<path d="M2522 1038 c-16 -16 -15 -41 1 -35 6 2 12 8 12 13 0 5 4 15 8 22 10
15 -5 16 -21 0z"/>
<path d="M2570 956 c0 -9 7 -16 16 -16 17 0 14 22 -4 28 -7 2 -12 -3 -12 -12z"/>
<path d="M2545 941 c-3 -5 -1 -12 5 -16 5 -3 10 1 10 9 0 18 -6 21 -15 7z"/>
<path d="M2615 880 c3 -5 12 -10 20 -10 8 0 17 5 20 10 4 6 -5 10 -20 10 -15
0 -24 -4 -20 -10z"/>
<path d="M2600 855 c-18 -21 -3 -32 16 -13 10 9 12 18 6 22 -5 3 -15 -1 -22
-9z"/>
<path d="M2680 822 c0 -12 -9 -23 -20 -27 -21 -7 -28 -25 -10 -25 6 0 10 4 10
9 0 5 11 12 25 15 29 7 32 18 10 36 -13 10 -15 9 -15 -8z"/>
<path d="M2914 798 c-46 -35 -54 -52 -30 -61 8 -3 29 5 46 18 l33 24 28 -19
c59 -43 83 -11 25 34 -42 32 -65 33 -102 4z"/>
<path d="M2740 752 c0 -16 13 -20 35 -11 11 4 15 8 8 8 -6 1 -18 4 -27 7 -9 3
-16 1 -16 -4z"/>
<path d="M2832 712 c-17 -19 -19 -28 -10 -34 8 -4 14 -2 16 7 2 9 8 13 13 9
12 -7 24 25 13 35 -5 5 -19 -3 -32 -17z"/>
<path d="M2790 580 c-17 -5 -8 -7 30 -7 30 -1 62 -2 70 -3 25 -5 254 0 249 5
-8 7 -322 12 -349 5z"/>
</g>
</svg>
