<?xml version="1.0" standalone="no"?>
<!DOCTYPE svg PUBLIC "-//W3C//DTD SVG 20010904//EN"
 "http://www.w3.org/TR/2001/REC-SVG-20010904/DTD/svg10.dtd">
<svg version="1.0" xmlns="http://www.w3.org/2000/svg"
 width="438.000000pt" height="600.000000pt" viewBox="0 0 438.000000 600.000000"
 preserveAspectRatio="xMidYMid meet">
<g transform="translate(0.000000,600.000000) scale(0.100000,-0.100000)"
fill="#000000" stroke="none">
<path d="M3041 4765 c-79 -18 -209 -78 -218 -101 -9 -23 9 -48 37 -52 13 -2
40 6 61 17 52 30 181 61 249 61 85 0 205 -35 293 -86 64 -37 81 -43 98 -34 15
8 19 19 17 42 -3 25 -13 37 -68 69 -136 82 -327 117 -469 84z m284 -27 c22 -6
45 -11 52 -10 6 2 15 -3 19 -9 5 -9 2 -10 -10 -6 -10 4 -15 3 -11 -3 3 -6 17
-7 31 -4 17 4 24 2 22 -6 -2 -7 7 -14 20 -16 12 -2 34 -11 47 -20 14 -9 25
-13 25 -9 0 4 6 2 14 -4 15 -13 29 -64 15 -55 -5 3 -9 1 -9 -5 0 -9 -93 36
-125 59 -5 4 -38 16 -72 25 -35 10 -61 20 -59 24 6 9 -205 6 -226 -3 -12 -6
-18 -4 -18 5 -1 9 -4 8 -11 -3 -5 -10 -18 -18 -27 -18 -9 0 -39 -12 -67 -25
-52 -26 -80 -32 -70 -15 3 6 2 10 -4 10 -5 0 -12 -6 -14 -12 -4 -9 -6 -9 -6
-1 -1 17 50 55 67 48 7 -3 19 -2 25 2 7 4 3 9 -9 14 -16 6 -15 8 8 8 15 1 30
6 33 11 4 6 16 8 27 4 15 -4 18 -3 13 6 -5 9 -4 11 3 6 7 -4 20 -2 29 3 25 14
239 14 288 -1z"/>
<path d="M2958 4683 c7 -3 16 -2 19 1 4 3 -2 6 -13 5 -11 0 -14 -3 -6 -6z"/>
<path d="M3348 4683 c7 -3 16 -2 19 1 4 3 -2 6 -13 5 -11 0 -14 -3 -6 -6z"/>
<path d="M3500 4640 c12 -8 13 -10 1 -10 -8 0 -11 -3 -8 -6 4 -4 13 -2 20 4 8
7 17 10 20 7 4 -3 5 -2 2 2 -3 4 -16 8 -28 10 -17 2 -19 1 -7 -7z"/>
<path d="M3160 4666 c0 -2 11 -6 25 -8 13 -3 22 -1 19 3 -5 9 -44 13 -44 5z"/>
<path d="M3035 4650 c-13 -5 -14 -9 -5 -9 8 0 24 4 35 9 13 5 14 9 5 9 -8 0
-24 -4 -35 -9z"/>
<path d="M2985 4640 c-3 -6 1 -7 9 -4 18 7 21 14 7 14 -6 0 -13 -4 -16 -10z"/>
<path d="M3300 4646 c0 -2 7 -7 16 -10 8 -3 12 -2 9 4 -6 10 -25 14 -25 6z"/>
<path d="M2802 4618 c1 -13 8 -25 15 -25 9 0 9 5 1 21 -16 31 -18 32 -16 4z"/>
<path d="M3367 4609 c7 -7 15 -10 18 -7 3 3 -2 9 -12 12 -14 6 -15 5 -6 -5z"/>
<path d="M3115 4593 c-78 -10 -195 -63 -195 -87 0 -7 9 -21 20 -31 19 -17 22
-17 99 9 124 41 233 31 340 -31 36 -21 47 -23 67 -14 77 35 -50 129 -204 151
-68 10 -75 10 -127 3z m178 -29 c15 -3 25 -10 22 -15 -4 -5 0 -6 8 -4 7 3 25
0 40 -8 21 -11 24 -16 14 -27 -10 -10 -8 -10 10 -1 18 9 22 8 25 -7 2 -9 10
-17 18 -17 22 0 27 -16 8 -28 -13 -9 -26 -4 -58 18 -23 16 -49 30 -58 31 -9 2
-37 6 -62 10 -25 3 -47 10 -50 14 -3 3 -39 0 -80 -7 -41 -8 -87 -15 -102 -16
-14 -1 -24 -5 -22 -9 8 -12 -46 -22 -57 -11 -20 20 45 58 87 52 4 0 10 4 13
10 4 6 24 12 45 15 21 3 41 7 44 11 6 6 107 -1 155 -11z"/>
<path d="M2967 4513 c-10 -9 -9 -23 1 -23 5 0 9 7 9 15 0 17 -1 18 -10 8z"/>
<path d="M2766 4571 c-4 -6 -2 -11 4 -11 7 0 9 -7 5 -17 -5 -14 -3 -15 5 -6 8
7 9 17 2 28 -6 12 -11 14 -16 6z"/>
<path d="M3442 4551 c-11 -7 -11 -9 0 -14 9 -3 15 1 15 9 0 8 -1 14 -1 14 -1
0 -7 -4 -14 -9z"/>
<path d="M3507 4546 c-4 -10 -1 -13 8 -9 8 3 12 9 9 14 -7 12 -11 11 -17 -5z"/>
<path d="M2637 4508 c-50 -63 -83 -124 -106 -202 -30 -98 -28 -122 12 -146 17
-11 35 -20 39 -20 3 0 11 31 18 69 13 78 54 171 106 243 35 47 35 49 20 73
-24 36 -50 31 -89 -17z m64 -10 c10 -18 9 -20 -5 -15 -10 4 -15 3 -11 -3 3 -6
-1 -13 -10 -16 -8 -4 -14 -12 -13 -20 2 -7 -6 -20 -17 -29 -11 -9 -15 -14 -8
-11 8 5 8 0 0 -18 -7 -13 -15 -22 -20 -19 -5 3 -8 -1 -6 -8 1 -8 1 -23 0 -34
-1 -15 -3 -17 -10 -7 -6 9 -8 5 -8 -15 0 -27 -11 -95 -19 -121 -3 -10 -9 -10
-24 -2 -21 11 -28 50 -9 50 6 0 8 8 4 19 -7 24 4 73 16 65 5 -3 6 2 3 11 -7
18 15 67 26 60 4 -3 13 2 19 9 9 11 9 16 0 22 -8 4 -9 3 -5 -4 4 -7 2 -12 -3
-12 -18 0 -13 15 14 44 13 14 21 26 18 26 -3 0 0 7 7 15 7 8 16 12 21 9 5 -3
9 2 9 10 0 23 17 20 31 -6z"/>
<path d="M2540 4200 c0 -5 5 -10 11 -10 5 0 7 5 4 10 -3 6 -8 10 -11 10 -2 0
-4 -4 -4 -10z"/>
<path d="M3476 4537 c3 -10 9 -15 12 -12 3 3 0 11 -7 18 -10 9 -11 8 -5 -6z"/>
<path d="M3500 4501 c0 -6 4 -13 10 -16 6 -3 7 1 4 9 -7 18 -14 21 -14 7z"/>
<path d="M3230 4486 c0 -3 14 -13 31 -22 23 -11 34 -13 42 -5 6 6 7 11 2 12
-17 1 -39 7 -57 14 -10 4 -18 5 -18 1z"/>
<path d="M3665 4470 c-18 -19 -17 -23 28 -118 55 -117 67 -162 67 -267 0 -106
-12 -152 -66 -263 -44 -89 -45 -93 -30 -117 9 -14 20 -25 24 -25 41 0 122 147
147 268 29 134 11 298 -45 420 -55 119 -86 145 -125 102z m58 -36 c-3 -7 2
-17 11 -20 9 -3 16 -12 16 -19 0 -7 5 -15 11 -17 5 -2 11 -10 13 -18 2 -8 9
-28 15 -45 7 -16 13 -59 13 -95 1 -51 2 -57 7 -30 7 34 7 33 14 -20 7 -58 2
-208 -7 -218 -3 -3 -6 7 -6 21 0 15 -4 27 -10 27 -12 0 -12 2 -1 -36 8 -29 -2
-92 -24 -147 -7 -17 -9 -17 -26 -1 -18 17 -19 16 -13 -14 4 -21 2 -38 -7 -49
-11 -14 -12 -15 -1 -9 11 7 12 4 2 -13 -11 -21 -39 -25 -52 -7 -3 5 8 37 26
70 18 34 39 84 46 113 8 29 17 50 20 48 4 -3 6 51 5 118 -1 95 -6 136 -23 186
-12 35 -19 68 -15 74 4 6 1 7 -7 2 -10 -6 -12 -4 -6 11 4 10 4 15 0 11 -6 -6
-54 73 -54 90 0 3 9 3 19 0 15 -4 18 -1 13 12 -5 14 -3 14 11 3 8 -8 13 -20
10 -28z"/>
<path d="M3801 4124 c0 -11 3 -14 6 -6 3 7 2 16 -1 19 -3 4 -6 -2 -5 -13z"/>
<path d="M3803 4065 c0 -22 2 -30 4 -17 2 12 2 30 0 40 -3 9 -5 -1 -4 -23z"/>
<path d="M3048 4463 c6 -2 18 -2 25 0 6 3 1 5 -13 5 -14 0 -19 -2 -12 -5z"/>
<path d="M3320 4450 c0 -5 5 -10 11 -10 5 0 7 5 4 10 -3 6 -8 10 -11 10 -2 0
-4 -4 -4 -10z"/>
<path d="M2848 4443 c6 -3 12 -12 13 -21 0 -11 2 -12 6 -4 2 6 9 10 14 7 5 -4
6 0 4 7 -3 8 -16 14 -28 15 -12 0 -16 -1 -9 -4z"/>
<path d="M2941 4443 c8 -4 3 -11 -12 -18 l-24 -13 26 1 c27 2 35 29 10 33 -9
2 -9 1 0 -3z"/>
<path d="M3148 4443 c7 -3 16 -2 19 1 4 3 -2 6 -13 5 -11 0 -14 -3 -6 -6z"/>
<path d="M2787 4406 c-55 -51 -107 -195 -107 -301 0 -63 21 -97 58 -93 27 3
27 4 33 100 5 88 9 105 47 182 23 46 42 88 42 93 0 10 -32 43 -42 43 -3 0 -17
-11 -31 -24z m33 -28 c0 -9 4 -8 10 2 5 8 10 11 10 5 0 -5 -4 -17 -10 -25 -8
-12 -10 -12 -16 3 -3 9 -11 17 -16 17 -7 0 -6 -5 1 -13 14 -17 6 -54 -16 -80
-10 -12 -12 -17 -4 -12 11 6 12 5 5 -6 -5 -8 -14 -30 -20 -49 -9 -26 -12 -29
-13 -13 -1 12 -6 25 -11 28 -7 4 -8 -12 -5 -47 13 -115 13 -138 -1 -149 -26
-21 -34 1 -31 91 2 64 7 93 18 107 9 10 14 23 12 30 -4 12 23 73 33 73 3 0 2
-5 -2 -12 -4 -7 -3 -8 4 -4 6 4 9 13 5 21 -6 18 14 45 33 45 8 0 14 -6 14 -12z"/>
<path d="M2720 4055 c-11 -13 -10 -14 4 -9 9 3 16 10 16 15 0 13 -6 11 -20 -6z"/>
<path d="M3626 4422 c-2 -4 -1 -14 3 -21 6 -9 11 -10 15 -2 4 6 2 11 -4 11 -6
0 -8 5 -5 10 3 6 4 10 1 10 -3 0 -7 -4 -10 -8z"/>
<path d="M3060 4392 c-65 -25 -153 -116 -176 -183 -38 -112 -23 -196 77 -440
53 -130 107 -306 116 -379 l6 -49 46 72 c117 179 287 455 315 511 25 51 31 75
34 152 4 83 2 97 -23 153 -51 113 -157 181 -280 180 -39 0 -90 -8 -115 -17z
m200 -19 c29 -2 50 -9 58 -20 6 -9 12 -14 12 -10 0 4 21 -13 46 -37 28 -28 43
-50 38 -57 -4 -7 -3 -9 4 -5 16 10 25 -13 11 -30 -6 -8 -9 -18 -5 -21 4 -4 11
-1 16 7 6 8 10 11 11 5 1 -5 4 -23 7 -40 6 -37 6 -111 -1 -145 -3 -14 -6 -32
-7 -40 -1 -11 -4 -9 -10 5 -7 16 -9 12 -10 -20 -2 -22 -2 -44 -1 -48 1 -5 -2
-6 -7 -4 -6 5 -46 -61 -86 -140 -13 -27 -28 -31 -19 -5 3 9 3 14 -1 11 -4 -4
-9 -19 -12 -34 -7 -38 -33 -75 -49 -69 -7 3 -16 1 -20 -5 -3 -7 0 -8 9 -5 13
5 14 1 5 -26 -7 -17 -18 -34 -25 -37 -8 -3 -12 -8 -10 -12 3 -4 -6 -15 -20
-25 -13 -11 -24 -25 -24 -33 0 -14 -37 -73 -55 -85 -5 -4 -14 -4 -20 -1 -5 3
-4 0 3 -8 15 -16 17 -38 2 -23 -5 5 -19 48 -31 94 -11 47 -27 99 -35 117 -8
17 -14 36 -14 43 0 6 -5 21 -12 33 -7 12 -13 30 -15 40 -2 10 -14 39 -28 65
-14 26 -25 53 -25 60 0 7 -4 20 -10 30 -39 69 -66 241 -40 257 6 4 8 10 5 15
-3 4 -2 16 2 27 6 16 8 15 14 -7 6 -20 7 -17 8 17 1 34 8 50 35 77 18 20 32
37 29 40 -2 2 0 7 6 11 6 3 11 0 11 -7 0 -9 3 -9 10 2 5 8 14 16 20 16 5 1 16
2 23 3 8 1 7 4 -3 11 -17 11 -20 10 75 16 38 3 71 7 74 9 2 3 7 2 10 -2 3 -5
26 -9 51 -10z"/>
<path d="M3081 4351 c-10 -7 -7 -9 12 -8 14 1 23 5 20 10 -6 9 -15 9 -32 -2z"/>
<path d="M3020 4320 c0 -5 5 -10 11 -10 5 0 7 5 4 10 -3 6 -8 10 -11 10 -2 0
-4 -4 -4 -10z"/>
<path d="M3153 4323 c-24 -2 -43 -9 -43 -14 0 -6 4 -8 8 -5 5 3 27 6 50 7 22
2 39 6 36 11 -3 4 -6 7 -7 6 -1 -1 -21 -3 -44 -5z"/>
<path d="M3225 4310 c3 -5 10 -10 16 -10 5 0 9 5 9 10 0 6 -7 10 -16 10 -8 0
-12 -4 -9 -10z"/>
<path d="M3288 4278 c17 -13 30 -28 28 -34 -3 -6 3 -11 12 -10 10 1 16 -6 16
-16 -1 -10 3 -15 8 -12 6 4 8 -3 4 -17 -6 -21 -5 -22 4 -6 9 14 8 24 -6 45
-22 34 -65 71 -84 72 -8 0 0 -10 18 -22z"/>
<path d="M3379 4263 c-12 -16 -12 -17 2 -6 9 7 20 9 24 5 5 -4 5 -1 1 6 -9 16
-11 15 -27 -5z"/>
<path d="M3157 4264 c-2 -2 -13 -5 -26 -7 -12 -2 -30 -10 -39 -18 -10 -9 -24
-13 -32 -11 -8 3 -12 1 -8 -3 4 -4 -1 -20 -12 -35 -11 -16 -20 -34 -20 -41 0
-8 -6 -5 -16 7 -15 18 -15 18 -5 -3 14 -27 14 -46 1 -38 -6 3 -10 -4 -10 -17
0 -17 3 -19 9 -9 6 10 11 4 16 -20 4 -19 12 -43 18 -54 6 -11 11 -24 12 -28 0
-5 11 -15 25 -22 23 -13 23 -14 5 -16 -11 -1 -23 -1 -26 -1 -3 1 -6 -6 -6 -13
0 -10 4 -11 11 -5 7 5 41 6 77 3 50 -4 74 -1 98 11 17 9 31 14 31 11 0 -3 8 2
18 12 35 35 55 77 54 117 0 51 -3 62 -27 106 -11 19 -18 39 -17 43 1 5 -2 6
-8 2 -5 -3 -20 -1 -32 6 -25 13 -85 29 -91 23z m91 -44 c43 -26 76 -99 69
-147 -23 -139 -207 -168 -269 -43 -35 68 -14 150 47 190 40 26 110 26 153 0z"/>
<path d="M3145 4223 c-31 -7 -40 -21 -11 -16 15 3 29 9 32 14 3 5 4 8 2 8 -2
-1 -12 -3 -23 -6z"/>
<path d="M3190 4210 c-9 -6 -10 -10 -3 -10 6 0 15 5 18 10 8 12 4 12 -15 0z"/>
<path d="M3148 4173 c7 -3 16 -2 19 1 4 3 -2 6 -13 5 -11 0 -14 -3 -6 -6z"/>
<path d="M3347 4109 c4 -13 8 -18 11 -10 2 7 -1 18 -6 23 -8 8 -9 4 -5 -13z"/>
<path d="M3381 4114 c0 -11 3 -14 6 -6 3 7 2 16 -1 19 -3 4 -6 -2 -5 -13z"/>
<path d="M2991 4044 c0 -11 3 -14 6 -6 3 7 2 16 -1 19 -3 4 -6 -2 -5 -13z"/>
<path d="M3336 4013 c-6 -14 -5 -15 5 -6 7 7 10 15 7 18 -3 3 -9 -2 -12 -12z"/>
<path d="M2911 3974 c0 -11 3 -14 6 -6 3 7 2 16 -1 19 -3 4 -6 -2 -5 -13z"/>
<path d="M3377 3913 c10 -3 10 -10 2 -26 -10 -21 -10 -21 5 -3 21 26 20 36 -1
35 -11 0 -13 -3 -6 -6z"/>
<path d="M3138 3903 c7 -3 16 -2 19 1 4 3 -2 6 -13 5 -11 0 -14 -3 -6 -6z"/>
<path d="M3042 3650 c0 -19 2 -27 5 -17 2 9 2 25 0 35 -3 9 -5 1 -5 -18z"/>
<path d="M3606 4397 c3 -10 9 -15 12 -12 3 3 0 11 -7 18 -10 9 -11 8 -5 -6z"/>
<path d="M3383 4385 c0 -8 4 -12 9 -9 5 3 17 0 26 -7 13 -11 12 -8 -2 9 -22
26 -33 28 -33 7z"/>
<path d="M2510 4380 c0 -5 5 -10 11 -10 5 0 7 5 4 10 -3 6 -8 10 -11 10 -2 0
-4 -4 -4 -10z"/>
<path d="M3526 4357 c-15 -22 -14 -28 16 -93 30 -64 32 -77 33 -174 0 -97 -2
-110 -31 -174 -26 -57 -30 -74 -21 -93 29 -65 100 14 132 149 28 120 14 248
-39 344 -37 67 -65 80 -90 41z m49 -18 c1 -8 6 -13 12 -12 11 2 22 -29 28 -73
2 -12 11 -33 20 -48 14 -21 17 -44 13 -128 -4 -108 -13 -142 -30 -117 -6 9 -7
1 -3 -23 4 -24 2 -38 -5 -38 -5 0 -10 -9 -10 -20 0 -11 -4 -20 -10 -20 -5 0
-10 -6 -10 -14 0 -22 -15 -27 -35 -13 -16 13 -16 15 3 50 10 20 23 33 27 29 5
-4 5 -2 2 4 -4 7 0 34 8 60 8 27 15 66 15 86 0 20 5 40 10 43 6 3 10 11 10 16
0 6 -4 8 -8 5 -5 -3 -18 27 -29 67 -12 40 -28 89 -37 110 -15 33 -15 37 -1 37
10 0 13 5 9 11 -4 7 -1 10 7 7 8 -3 14 -11 14 -19z"/>
<path d="M3607 4155 c3 -8 9 -12 14 -9 12 7 11 11 -5 17 -10 4 -13 1 -9 -8z"/>
<path d="M2890 4351 c0 -6 4 -13 10 -16 6 -3 7 1 4 9 -7 18 -14 21 -14 7z"/>
<path d="M3626 4347 c3 -10 9 -15 12 -12 3 3 0 11 -7 18 -10 9 -11 8 -5 -6z"/>
<path d="M2681 4284 c0 -11 3 -14 6 -6 3 7 2 16 -1 19 -3 4 -6 -2 -5 -13z"/>
<path d="M3500 4291 c0 -5 5 -13 10 -16 6 -3 10 -2 10 4 0 5 -4 13 -10 16 -5
3 -10 2 -10 -4z"/>
<path d="M2476 4265 c-3 -8 -1 -15 4 -15 6 0 10 7 10 15 0 8 -2 15 -4 15 -2 0
-6 -7 -10 -15z"/>
<path d="M3482 4266 c7 -8 15 -12 17 -11 5 6 -10 25 -20 25 -5 0 -4 -6 3 -14z"/>
<path d="M1580 4220 c-9 -6 -10 -10 -3 -10 6 0 15 5 18 10 8 12 4 12 -15 0z"/>
<path d="M2470 4221 c0 -6 5 -13 10 -16 6 -3 10 1 10 9 0 9 -4 16 -10 16 -5 0
-10 -4 -10 -9z"/>
<path d="M1756 4209 c-210 -31 -414 -132 -568 -283 -59 -58 -148 -166 -148
-180 0 -3 -14 -29 -31 -58 -138 -233 -159 -565 -57 -902 18 -60 58 -170 100
-276 9 -24 11 -22 39 38 15 35 48 93 73 130 44 66 177 204 206 214 12 4 10 16
-13 74 -41 102 -57 171 -57 249 0 191 114 399 272 497 39 24 48 38 24 38 -7 0
-48 16 -90 35 -63 29 -80 34 -97 25 -19 -11 -20 -17 -13 -98 4 -55 12 -91 20
-97 12 -8 10 -15 -9 -37 -13 -15 -27 -25 -30 -22 -9 9 -167 -8 -161 -17 3 -5
1 -9 -4 -9 -28 0 -18 -39 29 -116 28 -45 49 -88 47 -95 -2 -7 -21 14 -41 47
-40 65 -51 63 -13 -3 14 -23 26 -56 28 -73 3 -28 -1 -32 -68 -64 -95 -45 -111
-50 -111 -32 0 9 5 13 10 9 5 -3 6 3 3 14 -3 11 3 45 13 76 11 31 23 77 27
102 5 37 9 43 20 34 11 -9 14 -8 14 5 0 9 -5 16 -11 16 -5 0 -7 4 -4 10 4 6
11 5 19 -3 8 -6 12 -15 9 -19 -2 -5 4 -8 13 -8 16 0 16 1 1 18 -10 10 -17 24
-17 30 0 14 -10 15 -26 4 -6 -4 -26 -63 -43 -131 -18 -68 -36 -134 -41 -147
-6 -16 -5 -26 5 -34 10 -9 26 -5 67 16 29 16 55 28 58 29 3 0 19 9 37 18 18 9
37 17 43 17 25 0 -5 -22 -83 -61 -95 -47 -104 -54 -82 -63 9 -3 14 -2 11 3 -6
9 52 38 67 33 4 -1 7 5 7 14 0 8 5 12 10 9 6 -3 17 1 26 9 32 33 41 20 32 -46
-4 -33 -6 -63 -3 -66 3 -3 5 4 5 16 0 11 5 24 10 27 9 6 12 -10 14 -85 1 -15
6 -24 14 -22 8 1 11 -1 8 -6 -3 -5 6 -30 18 -57 l24 -49 -21 -17 c-12 -9 -28
-15 -37 -12 -10 3 -11 2 -4 -4 8 -5 4 -14 -13 -27 -25 -18 -25 -18 -14 2 7 14
8 23 1 27 -7 4 -6 14 1 28 12 21 11 21 -8 5 -34 -30 -63 -18 -63 26 0 12 -61
79 -106 118 -17 15 -20 15 -34 0 -13 -14 -12 -15 4 -9 25 10 114 -81 123 -123
3 -17 9 -30 14 -30 5 0 8 -5 6 -11 -1 -6 5 -14 13 -16 13 -4 13 -3 0 6 -12 9
-10 11 11 11 23 0 26 -4 25 -30 -1 -16 -7 -35 -15 -42 -8 -7 -11 -8 -8 -3 3 6
-4 12 -16 12 -17 2 -19 0 -7 -8 13 -8 11 -12 -10 -29 -14 -10 -26 -25 -26 -32
-1 -7 -2 -19 -3 -25 0 -7 -6 -12 -13 -10 -7 1 -12 -7 -13 -18 0 -11 -6 -19
-12 -18 -8 2 -13 -7 -13 -21 0 -14 -5 -28 -12 -32 -7 -4 -8 -3 -4 4 15 25 -3
10 -20 -15 -16 -26 -16 -27 0 -14 16 14 16 12 0 -23 -18 -36 -18 -36 -28 -14
-5 13 -8 37 -8 53 1 25 0 27 -7 10 -7 -16 -10 -17 -14 -5 -3 8 -15 41 -26 73
-12 34 -22 85 -22 125 -1 54 -3 60 -9 32 -4 -23 -9 -30 -13 -20 -10 26 -45
233 -47 279 0 25 -4 49 -7 54 -3 6 -1 7 5 3 8 -5 12 0 12 13 0 10 -6 22 -12
24 -8 3 -9 6 -2 6 8 1 10 26 8 76 -2 42 1 73 6 70 5 -3 12 0 16 6 5 8 3 9 -6
4 -10 -6 -12 0 -7 31 11 67 28 115 37 109 9 -6 14 7 25 78 8 49 44 119 57 111
5 -3 8 0 7 7 -6 25 20 58 41 54 11 -2 20 1 20 7 0 5 -8 7 -17 4 -16 -6 -16 -6
-1 11 9 10 16 21 15 24 -3 9 47 64 58 64 6 0 17 -4 25 -9 9 -6 6 1 -5 14 -18
21 -18 23 -2 17 10 -4 16 -3 13 2 -9 14 18 41 47 47 21 3 27 1 21 -7 -4 -8 -3
-9 5 -5 15 10 3 29 -15 22 -11 -4 -11 -2 -2 14 7 10 14 17 17 14 3 -2 21 10
40 28 19 18 29 25 22 16 -12 -16 -11 -18 8 -18 18 0 21 4 16 21 -6 18 -4 20
17 14 18 -5 20 -4 8 4 -12 8 -9 12 17 17 18 3 31 11 30 17 -1 6 12 13 28 17
17 4 42 14 57 24 16 10 41 16 60 15 18 -2 34 1 35 6 1 6 -7 9 -17 7 -11 -2
-20 -1 -20 1 0 3 42 15 94 27 83 19 114 21 263 17 92 -2 182 -7 198 -11 74
-17 110 -29 116 -38 4 -6 17 -12 30 -13 13 -1 30 -3 37 -4 7 0 10 -6 6 -13 -5
-8 -2 -9 9 -5 10 4 17 1 17 -5 0 -6 3 -8 6 -5 4 3 16 1 28 -5 20 -11 20 -11 1
-20 -15 -6 -11 -7 13 -3 31 4 32 3 22 -18 -10 -20 -10 -20 3 -5 16 20 28 14
20 -10 -4 -14 -3 -14 5 -3 8 12 16 10 43 -8 52 -33 95 -71 82 -71 -7 0 -13 -5
-13 -11 0 -5 4 -7 10 -4 14 9 62 -26 56 -41 -3 -8 0 -11 10 -7 10 4 17 -2 21
-16 3 -11 9 -18 14 -15 5 3 10 0 10 -5 1 -6 2 -15 3 -21 0 -5 6 -10 11 -11 18
-1 44 -31 39 -44 -3 -7 0 -16 7 -21 8 -4 10 -3 5 4 -4 7 -5 12 -2 12 13 0 46
-70 40 -86 -4 -15 -4 -16 4 -5 8 11 11 9 17 -9 4 -12 7 -38 8 -59 0 -20 2 -28
4 -18 3 9 9 17 14 17 6 0 8 -4 5 -9 -4 -5 -2 -11 3 -13 13 -4 41 -112 41 -158
0 -23 3 -30 9 -22 13 21 21 -53 22 -192 0 -161 -9 -230 -27 -215 -11 9 -14 6
-14 -17 0 -23 2 -26 11 -14 8 12 9 10 5 -10 -3 -14 -9 -43 -12 -65 -5 -38 -12
-64 -30 -110 -4 -11 -6 -25 -5 -32 1 -6 -4 -15 -10 -19 -9 -5 -11 4 -6 36 4
29 2 39 -4 29 -5 -7 -9 -41 -9 -73 0 -78 -29 -168 -52 -163 -11 3 -15 0 -11
-9 3 -8 10 -11 15 -8 6 4 8 1 6 -7 -3 -8 -11 -13 -17 -11 -7 1 -11 -4 -9 -12
2 -8 -1 -14 -7 -13 -5 1 -9 8 -9 14 1 7 -2 11 -6 8 -4 -2 -15 23 -26 55 -10
33 -22 60 -25 60 -4 0 -14 12 -24 26 -9 15 -12 23 -6 20 6 -4 11 -2 11 3 0 6
-6 11 -14 11 -18 0 -58 54 -48 64 4 4 3 7 -3 6 -22 -5 -27 1 -14 17 10 11 10
14 2 9 -8 -4 -13 -2 -13 7 0 8 -7 18 -16 21 -10 4 -14 12 -9 24 5 13 4 14 -6
5 -10 -10 -9 -15 1 -28 22 -26 -4 -16 -30 12 -14 15 -20 24 -15 21 6 -4 17 -2
25 3 13 9 13 10 0 6 -8 -2 -21 3 -28 12 -10 14 -11 13 -6 -4 6 -18 5 -19 -10
-4 -14 12 -15 21 -6 43 5 15 14 24 20 21 5 -3 10 3 10 14 0 11 5 32 12 48 15
38 17 48 27 123 7 57 8 61 15 35 19 -76 50 -171 58 -179 5 -6 15 -2 26 10 10
10 37 36 60 56 36 33 41 42 38 74 -3 34 -8 39 -92 86 -49 27 -90 53 -92 59
-11 29 -20 -2 -26 -84 -5 -82 -33 -192 -55 -222 -4 -5 -13 -24 -20 -41 -12
-31 -11 -33 44 -85 106 -100 183 -221 230 -359 l23 -65 17 40 c41 97 125 371
151 490 38 182 39 375 1 517 -74 280 -245 501 -499 642 -185 103 -427 146
-642 115z m-278 -419 c7 0 10 -4 7 -10 -3 -5 0 -10 7 -11 31 -2 52 -9 66 -22
12 -13 12 -16 -7 -22 -12 -3 -19 -10 -16 -14 4 -8 -44 -36 -57 -33 -4 1 -4 -6
-1 -16 6 -15 5 -16 -12 -2 -10 8 -16 10 -13 5 10 -16 -7 -36 -24 -30 -9 4 -15
21 -17 48 -1 23 -3 56 -5 72 -4 34 9 48 39 40 11 -2 26 -5 33 -5z m-508 -250
c0 -11 -4 -20 -9 -20 -5 0 -7 9 -4 20 3 11 7 20 9 20 2 0 4 -9 4 -20z m397 -6
c2 -5 -4 -19 -13 -29 -14 -18 -15 -18 -10 -2 3 11 2 16 -4 12 -6 -3 -10 -1
-10 6 0 7 -3 10 -6 7 -3 -4 -1 -16 6 -27 6 -12 7 -27 3 -34 -4 -6 -8 -16 -8
-21 0 -5 -6 -11 -13 -14 -6 -2 -10 2 -9 10 2 7 2 10 0 5 -3 -4 -10 -4 -16 -1
-8 5 -8 2 1 -7 13 -14 17 -93 4 -85 -4 3 -21 29 -36 58 -15 29 -32 61 -39 70
-9 13 -7 21 8 38 11 12 27 19 36 17 10 -3 33 -1 51 3 38 9 50 8 55 -6z m1223
-335 c0 -6 4 -8 9 -5 4 3 29 -8 54 -23 39 -25 45 -34 43 -60 -2 -31 -30 -68
-77 -102 l-26 -19 -17 54 c-10 30 -19 71 -22 91 -2 21 -7 42 -10 47 -3 4 -7
19 -10 32 -4 24 -4 24 26 10 16 -9 30 -20 30 -25z m-1390 -444 c-7 -9 -15 -13
-17 -11 -7 7 7 26 19 26 6 0 6 -6 -2 -15z"/>
<path d="M1527 3749 c7 -7 15 -10 18 -7 3 3 -2 9 -12 12 -14 6 -15 5 -6 -5z"/>
<path d="M2650 3146 c0 -2 7 -7 16 -10 8 -3 12 -2 9 4 -6 10 -25 14 -25 6z"/>
<path d="M3721 4194 c0 -11 3 -14 6 -6 3 7 2 16 -1 19 -3 4 -6 -2 -5 -13z"/>
<path d="M1900 4150 c-25 -4 -49 -5 -54 -2 -5 3 -6 0 -3 -5 8 -13 -21 -73 -34
-73 -6 0 -8 -4 -5 -9 4 -5 -3 -7 -14 -4 -11 3 -20 1 -20 -4 0 -6 -21 -18 -47
-28 -27 -10 -53 -22 -60 -27 -7 -5 -16 -7 -22 -4 -5 3 -11 0 -14 -6 -3 -10 -7
-10 -21 1 -14 12 -16 12 -11 -1 4 -10 -6 -18 -37 -28 -24 -7 -61 -22 -82 -33
-31 -15 -44 -17 -58 -8 -26 16 -80 13 -106 -7 -25 -19 -34 -64 -19 -98 7 -17
0 -33 -36 -82 -24 -34 -48 -58 -51 -54 -4 3 -4 -2 0 -13 4 -11 3 -17 -1 -13
-11 10 -38 -29 -30 -42 4 -6 23 13 42 42 20 29 53 75 74 102 32 42 35 51 23
63 -18 19 -18 61 1 79 21 22 67 25 88 6 16 -14 24 -13 95 16 42 18 137 56 210
84 115 44 132 53 132 73 0 30 30 55 67 55 33 0 63 -26 63 -56 0 -16 24 -27
143 -63 78 -25 160 -52 182 -62 39 -16 42 -16 64 2 17 14 28 16 41 9 20 -11
35 -44 26 -59 -3 -4 32 -44 77 -87 133 -127 139 -131 170 -123 61 16 107 -72
59 -112 l-21 -17 32 -186 c18 -107 36 -186 42 -186 25 0 55 -41 55 -75 0 -45
-34 -70 -81 -60 -28 6 -36 2 -85 -46 -43 -42 -52 -57 -48 -76 5 -19 0 -26 -27
-38 -38 -16 -25 -21 15 -5 18 7 26 17 26 34 0 14 8 30 18 35 9 6 13 11 8 11
-5 0 9 18 31 39 31 31 45 38 66 34 15 -3 40 0 56 7 29 12 41 41 41 99 0 20 -2
23 -10 11 -8 -13 -10 -13 -10 1 0 9 -11 21 -24 28 -20 11 -27 27 -41 105 -9
50 -20 109 -25 131 -20 86 -20 132 2 151 15 15 18 25 12 54 -3 19 -7 41 -7 48
0 17 -38 32 -88 35 -33 2 -51 13 -124 81 -46 43 -82 83 -79 88 3 4 2 8 -3 7
-20 -3 -27 2 -13 11 9 6 11 10 3 10 -7 0 -10 6 -7 14 7 19 -59 71 -90 71 -14
1 -22 -3 -19 -7 2 -5 14 -6 26 -2 22 6 22 6 2 -9 -11 -8 -24 -13 -29 -10 -5 4
-6 1 -2 -5 4 -7 2 -12 -3 -12 -6 0 -11 4 -11 10 0 5 -6 7 -14 4 -8 -3 -17 -1
-21 5 -3 6 -15 11 -26 11 -11 0 -18 4 -15 8 2 4 -5 8 -17 9 -37 2 -168 49
-160 58 5 4 -2 4 -14 1 -13 -4 -23 -3 -23 2 0 6 -9 8 -20 5 -15 -4 -20 0 -20
15 0 11 -7 25 -15 32 -11 9 -12 17 -4 34 10 17 9 19 -2 9 -16 -15 -33 -17 -24
-3 3 6 5 9 3 9 -2 -1 -23 -5 -48 -9z"/>
<path d="M2476 4151 c-6 -9 53 -51 70 -51 5 0 -8 11 -28 24 -21 12 -35 26 -31
29 3 4 4 7 0 7 -3 0 -8 -4 -11 -9z"/>
<path d="M2188 4133 c6 -2 18 -2 25 0 6 3 1 5 -13 5 -14 0 -19 -2 -12 -5z"/>
<path d="M3541 4124 c0 -11 3 -14 6 -6 3 7 2 16 -1 19 -3 4 -6 -2 -5 -13z"/>
<path d="M3901 4084 c0 -11 3 -14 6 -6 3 7 2 16 -1 19 -3 4 -6 -2 -5 -13z"/>
<path d="M1448 4063 c6 -2 18 -2 25 0 6 3 1 5 -13 5 -14 0 -19 -2 -12 -5z"/>
<path d="M2095 4050 c27 -12 43 -12 25 0 -8 5 -22 9 -30 9 -10 0 -8 -3 5 -9z"/>
<path d="M1961 4027 c-9 -9 114 -212 142 -236 15 -12 239 98 234 114 -5 16
-365 133 -376 122z m66 -28 c15 -7 35 -13 43 -14 8 -1 41 -12 73 -25 32 -12
68 -23 80 -25 12 -2 39 -10 60 -18 l39 -14 -46 -22 c-25 -11 -53 -21 -61 -21
-8 0 -15 -4 -15 -9 0 -5 -10 -13 -22 -17 -12 -3 -28 -13 -36 -20 -7 -8 -16
-14 -20 -14 -11 1 -62 79 -62 96 0 8 -4 12 -10 9 -6 -3 -7 1 -4 9 4 11 0 16
-11 16 -12 0 -16 6 -12 19 3 14 1 18 -9 14 -8 -3 -14 -1 -14 5 0 6 -3 17 -6
26 -7 19 -4 19 33 5z"/>
<path d="M2100 3956 c0 -2 7 -7 16 -10 8 -3 12 -2 9 4 -6 10 -25 14 -25 6z"/>
<path d="M2655 4029 c-4 -5 -1 -9 5 -9 6 0 8 -6 4 -12 -4 -7 -4 -10 1 -6 4 4
14 3 22 -4 23 -19 20 -4 -4 19 -12 12 -25 18 -28 12z"/>
<path d="M1628 3947 c-122 -50 -198 -86 -198 -94 0 -8 17 -21 38 -29 20 -9 65
-28 99 -44 55 -25 66 -27 93 -17 22 8 30 17 27 29 -3 10 -1 16 3 15 8 -2 160
202 160 215 0 15 -24 7 -222 -75z m197 53 c-3 -5 -12 -10 -18 -10 -7 0 -6 4 3
10 19 12 23 12 15 0z m-31 -29 c-5 -3 -18 -21 -28 -40 -27 -49 -48 -71 -59
-64 -6 4 -8 -1 -4 -10 4 -11 1 -17 -8 -17 -7 0 -17 -4 -20 -10 -3 -6 2 -8 12
-5 10 3 5 -1 -11 -8 -19 -10 -24 -16 -15 -19 10 -3 8 -8 -8 -17 -19 -10 -31
-7 -82 18 -32 17 -61 27 -65 24 -3 -4 -6 -1 -6 5 0 7 -3 11 -7 11 -21 -3 -33
3 -33 17 0 11 6 14 21 9 14 -5 19 -3 15 3 -9 15 16 21 38 10 13 -7 16 -7 12 1
-8 12 44 40 63 33 8 -3 11 0 7 7 -7 10 -3 13 27 15 6 1 14 4 17 7 9 11 102 39
111 33 5 -3 9 0 9 6 0 6 5 8 11 4 6 -3 7 -9 3 -13z"/>
<path d="M2455 4010 c3 -5 8 -10 11 -10 2 0 4 5 4 10 0 6 -5 10 -11 10 -5 0
-7 -4 -4 -10z"/>
<path d="M1847 3976 c-13 -17 -36 -50 -51 -74 -15 -23 -43 -61 -63 -82 -19
-22 -34 -40 -32 -40 2 0 25 6 50 14 96 29 238 29 315 -1 7 -3 -18 41 -56 98
-62 93 -74 105 -105 110 -31 5 -38 2 -58 -25z m114 -41 c10 -16 23 -36 29 -43
6 -7 8 -17 4 -24 -4 -6 -3 -8 3 -5 6 4 14 0 17 -9 3 -8 2 -12 -4 -9 -6 3 -10
0 -10 -7 0 -10 -18 -12 -73 -10 -41 2 -98 -1 -126 -6 -48 -9 -52 -8 -37 6 16
16 27 18 114 21 23 0 42 6 42 12 0 8 -21 10 -65 7 -36 -3 -65 -2 -65 1 0 4 13
21 29 39 17 17 27 32 24 32 -4 0 4 11 16 24 20 21 26 23 53 12 17 -6 39 -24
49 -41z"/>
<path d="M1870 3958 c-12 -22 -12 -22 6 -6 10 10 15 20 12 24 -4 3 -12 -5 -18
-18z"/>
<path d="M1930 3850 c0 -5 14 -10 32 -10 36 0 35 4 -4 14 -17 4 -28 2 -28 -4z"/>
<path d="M2791 3988 c5 -10 12 -18 14 -18 2 0 3 8 2 18 0 10 -7 19 -13 19 -9
0 -10 -5 -3 -19z"/>
<path d="M2610 3986 c0 -2 7 -7 16 -10 8 -3 12 -2 9 4 -6 10 -25 14 -25 6z"/>
<path d="M1130 3966 c0 -2 6 -9 14 -15 10 -9 15 -8 19 2 3 8 -3 13 -14 14 -10
1 -19 0 -19 -1z"/>
<path d="M1085 3889 c-4 -6 -5 -12 -2 -15 2 -3 7 2 10 11 7 17 1 20 -8 4z"/>
<path d="M2250 3830 c-47 -27 -91 -49 -97 -49 -17 -1 -17 -21 0 -21 17 0 121
-67 162 -104 17 -15 41 -37 54 -49 l24 -22 -12 22 c-6 12 -19 27 -29 32 -12 8
-14 13 -5 18 6 5 15 50 19 107 5 79 4 100 -7 107 -18 11 -12 14 -109 -41z
m100 -48 c0 -71 -7 -112 -20 -112 -13 0 -85 62 -83 71 2 4 -3 6 -10 3 -17 -6
-48 18 -39 32 11 16 103 64 112 59 4 -3 11 2 14 11 13 33 26 0 26 -64z"/>
<path d="M2309 3758 c-6 -20 -6 -39 0 -42 4 -3 7 6 7 20 0 20 -4 32 -7 22z"/>
<path d="M2280 3716 c0 -2 8 -10 18 -17 15 -13 16 -12 3 4 -13 16 -21 21 -21
13z"/>
<path d="M2396 3862 c-3 -5 -9 -48 -12 -95 -6 -74 -4 -88 12 -110 18 -25 23
-26 116 -27 74 0 100 4 112 15 14 14 11 19 -27 53 -23 20 -72 66 -110 102 -74
70 -82 76 -91 62z m77 -85 c-3 -6 -2 -7 4 -4 9 6 92 -66 120 -103 13 -18 18
-17 -92 -23 -61 -3 -72 -1 -87 17 -25 30 -23 97 2 124 22 23 14 31 -9 10 -11
-11 -12 -9 -4 7 6 11 8 27 5 35 -2 8 12 0 31 -19 20 -19 33 -39 30 -44z"/>
<path d="M2440 3779 c0 -5 5 -7 10 -4 6 3 10 8 10 11 0 2 -4 4 -10 4 -5 0 -10
-5 -10 -11z"/>
<path d="M2562 3686 c7 -8 15 -12 17 -11 5 6 -10 25 -20 25 -5 0 -4 -6 3 -14z"/>
<path d="M3636 3851 c-3 -4 4 -17 17 -27 22 -19 22 -19 4 2 -9 11 -14 24 -10
27 3 4 4 7 0 7 -3 0 -8 -4 -11 -9z"/>
<path d="M3640 3800 c0 -5 5 -10 11 -10 5 0 7 5 4 10 -3 6 -8 10 -11 10 -2 0
-4 -4 -4 -10z"/>
<path d="M1800 3785 l-45 -14 47 2 c25 1 44 5 41 10 -2 4 12 7 31 7 22 0 36
-5 36 -12 0 -9 3 -9 9 1 5 8 18 12 30 8 12 -3 21 -1 21 4 0 13 -118 9 -170 -6z"/>
<path d="M3480 3790 c0 -5 5 -10 11 -10 5 0 7 5 4 10 -3 6 -8 10 -11 10 -2 0
-4 -4 -4 -10z"/>
<path d="M3510 3792 c0 -4 10 -9 22 -9 18 -2 20 0 8 7 -18 12 -30 13 -30 2z"/>
<path d="M1293 3723 c-85 -117 -95 -133 -89 -149 3 -8 10 -13 16 -9 5 3 37 8
72 12 78 7 90 20 83 88 -2 28 -5 67 -5 88 0 55 -21 47 -77 -30z m63 -32 c3
-84 -7 -96 -83 -103 -58 -6 -58 -6 -8 68 13 19 26 40 28 47 2 7 8 8 13 4 5 -4
2 -13 -6 -18 -13 -9 -13 -10 0 -6 8 2 15 12 15 23 0 20 26 66 33 59 3 -2 6
-36 8 -74z"/>
<path d="M2041 3776 c2 -2 20 -6 39 -10 25 -4 31 -3 20 4 -14 9 -69 15 -59 6z"/>
<path d="M3625 3771 c-3 -5 -1 -12 5 -16 5 -3 10 1 10 9 0 18 -6 21 -15 7z"/>
<path d="M1215 3749 c-4 -6 -5 -12 -2 -15 2 -3 7 2 10 11 7 17 1 20 -8 4z"/>
<path d="M2740 3731 c0 -5 5 -13 10 -16 6 -3 10 -2 10 4 0 5 -4 13 -10 16 -5
3 -10 2 -10 -4z"/>
<path d="M1607 3709 c7 -7 15 -10 18 -7 3 3 -2 9 -12 12 -14 6 -15 5 -6 -5z"/>
<path d="M2189 3708 c-12 -8 -11 -9 2 -5 9 3 27 -2 40 -10 12 -9 19 -11 15 -5
-13 21 -41 31 -57 20z"/>
<path d="M3604 3700 c0 -13 4 -16 10 -10 7 7 7 13 0 20 -6 6 -10 3 -10 -10z"/>
<path d="M2268 3668 c8 -10 10 -23 6 -30 -12 -19 -14 -38 -3 -38 6 0 9 8 7 18
-2 10 3 17 12 17 8 0 15 -7 15 -15 1 -8 6 -14 12 -13 7 2 21 -9 31 -22 11 -14
23 -25 27 -25 11 0 -19 35 -70 80 -27 25 -44 37 -37 28z"/>
<path d="M1031 3644 c0 -11 3 -14 6 -6 3 7 2 16 -1 19 -3 4 -6 -2 -5 -13z"/>
<path d="M2982 3640 c0 -14 2 -19 5 -12 2 6 2 18 0 25 -3 6 -5 1 -5 -13z"/>
<path d="M1136 3631 c-19 -7 -19 -8 2 -13 15 -4 22 -2 22 8 0 8 -1 14 -2 13
-2 0 -12 -4 -22 -8z"/>
<path d="M900 3591 c0 -25 6 -27 13 -6 4 8 2 17 -3 20 -6 4 -10 -3 -10 -14z"/>
<path d="M1095 3602 c-29 -21 -35 -39 -23 -73 6 -19 18 -40 25 -48 10 -9 11
-17 3 -25 -5 -7 -7 -16 -3 -19 3 -4 1 -12 -5 -19 -5 -7 -12 -29 -16 -48 -3
-19 -7 -44 -10 -55 -2 -11 -5 -27 -5 -35 -1 -13 -3 -13 -12 0 -9 13 -10 12 -5
-2 9 -30 -14 -76 -50 -97 -19 -11 -34 -26 -34 -32 0 -11 16 -2 48 29 7 6 19
12 25 12 7 0 22 39 35 88 13 48 31 114 41 147 l18 60 -24 18 c-30 24 -31 70
-1 91 12 9 18 16 13 16 -6 0 -14 -4 -20 -8z"/>
<path d="M2410 3590 c-9 -17 -5 -31 20 -75 34 -59 80 -183 80 -215 0 -11 3
-19 8 -18 10 3 61 -25 143 -78 98 -62 100 -57 65 154 -34 208 -35 212 -51 212
-7 0 -45 -55 -86 -121 -40 -67 -75 -116 -77 -110 -4 12 113 217 129 227 5 3 5
14 -1 25 -10 17 -22 19 -115 19 -95 0 -105 -2 -115 -20z m198 1 c20 -2 14 -24
-24 -81 -19 -30 -40 -65 -45 -78 -5 -13 -13 -20 -19 -17 -6 3 -7 -1 -4 -9 3
-9 1 -16 -5 -16 -6 0 -11 6 -11 14 0 7 -12 34 -26 60 -17 30 -21 46 -13 46 8
0 5 5 -5 13 -18 13 -18 15 -1 43 l17 29 -20 -25 c-11 -14 -24 -21 -29 -16 -4
4 1 15 13 24 18 15 77 20 172 13z m75 -133 c0 -53 2 -66 5 -38 4 43 5 41 18
-40 33 -209 33 -208 -29 -167 -19 12 -56 34 -81 50 -40 23 -46 31 -41 50 7 22
7 22 -9 2 -8 -11 -16 -15 -16 -8 0 14 35 80 55 103 7 8 16 25 19 36 4 12 15
29 26 39 11 10 20 23 20 30 0 13 22 37 28 30 3 -2 5 -42 5 -87z"/>
<path d="M2616 3453 c-6 -14 -5 -15 5 -6 7 7 10 15 7 18 -3 3 -9 -2 -12 -12z"/>
<path d="M1742 3591 c-11 -7 -11 -9 0 -14 9 -3 15 1 15 9 0 8 -1 14 -1 14 -1
0 -7 -4 -14 -9z"/>
<path d="M1565 3570 c-21 -23 -32 -116 -16 -139 5 -8 16 -11 25 -8 12 5 16 21
16 67 l0 60 60 0 c53 0 60 2 60 20 0 18 -7 20 -63 20 -51 0 -68 -4 -82 -20z
m18 -15 c-3 -9 -8 -14 -10 -11 -3 3 -2 9 2 15 9 16 15 13 8 -4z"/>
<path d="M2100 3570 c0 -18 7 -20 60 -20 l60 0 1 -47 c1 -27 1 -53 0 -59 -1
-7 8 -14 19 -17 19 -5 20 0 20 62 0 88 -13 101 -98 101 -55 0 -62 -2 -62 -20z
m137 -20 c3 -10 2 -11 -4 -4 -4 6 -15 14 -23 17 -11 5 -9 6 4 4 11 -1 21 -9
23 -17z"/>
<path d="M2755 3559 c-4 -6 -5 -12 -2 -15 2 -3 7 2 10 11 7 17 1 20 -8 4z"/>
<path d="M2826 3557 c3 -10 9 -15 12 -12 3 3 0 11 -7 18 -10 9 -11 8 -5 -6z"/>
<path d="M907 3553 c-4 -3 -7 -11 -7 -17 0 -6 5 -5 12 2 6 6 9 14 7 17 -3 3
-9 2 -12 -2z"/>
<path d="M2346 3533 c-6 -14 -5 -15 5 -6 7 7 10 15 7 18 -3 3 -9 -2 -12 -12z"/>
<path d="M2377 3536 c-4 -10 -1 -13 7 -10 14 6 30 -22 20 -37 -3 -5 -1 -17 5
-26 8 -14 10 -10 7 20 -3 44 -29 79 -39 53z"/>
<path d="M3011 3534 c0 -11 3 -14 6 -6 3 7 2 16 -1 19 -3 4 -6 -2 -5 -13z"/>
<path d="M2090 3530 c8 -5 22 -9 30 -9 10 0 8 3 -5 9 -27 12 -43 12 -25 0z"/>
<path d="M1638 3523 c12 -2 30 -2 40 0 9 3 -1 5 -23 4 -22 0 -30 -2 -17 -4z"/>
<path d="M1840 3449 c-81 -16 -185 -75 -254 -144 -46 -47 -71 -65 -90 -65 -19
0 -26 -5 -26 -20 0 -19 7 -20 108 -20 l108 0 13 -37 c8 -21 20 -46 29 -55 29
-34 -7 -18 -62 27 -54 44 -85 58 -70 33 4 -7 -2 -5 -13 5 -11 9 -24 17 -29 17
-21 -2 116 -112 174 -141 125 -61 241 -62 360 -2 63 32 176 132 150 133 -10 0
-18 -4 -18 -8 0 -5 -15 -19 -32 -32 l-33 -24 23 29 c12 15 20 30 17 33 -5 5
-107 -86 -137 -122 -14 -17 -18 -18 -33 -6 -12 10 -15 10 -13 1 3 -14 -13 -19
-82 -22 -70 -4 -130 0 -130 9 0 4 39 7 87 5 89 -2 125 9 146 44 5 8 16 11 26
8 21 -6 46 25 57 71 l7 29 -22 -19 c-18 -17 -21 -17 -15 -3 12 31 -3 18 -33
-31 -70 -113 -226 -111 -296 4 -15 25 -27 47 -27 49 0 3 11 5 25 5 17 0 29 -9
39 -28 22 -43 52 -64 100 -69 54 -7 107 22 126 67 l12 30 157 2 c131 3 156 5
156 18 0 10 -12 16 -34 18 -23 2 -41 12 -55 30 -66 86 -169 151 -277 177 -71
16 -75 16 -139 4z m20 -32 c-113 -49 -113 -49 -121 -35 -6 10 4 17 39 28 26 8
61 16 77 17 l30 1 -25 -11z m179 -9 c26 -7 31 -12 20 -19 -12 -7 -12 -9 0 -9
8 0 12 -3 8 -6 -3 -4 1 -21 10 -38 13 -26 9 -23 -26 16 -23 26 -45 47 -49 46
-4 -1 -18 2 -31 6 -18 6 -21 10 -10 17 8 5 21 6 29 3 8 -3 30 -11 49 -16z
m-72 -19 c49 -18 88 -64 107 -126 7 -20 4 -23 -23 -23 -24 0 -31 4 -31 20 0
26 -17 26 -25 -1 -6 -17 -12 -19 -33 -14 -15 4 -30 12 -34 18 -13 21 -9 56 8
65 29 16 5 35 -38 29 -54 -7 -88 -32 -106 -78 -12 -31 -20 -39 -40 -39 -18 0
-23 4 -18 16 3 9 6 22 6 29 0 22 61 86 95 101 37 16 94 18 132 3z m173 -41 c0
-12 -6 -9 -26 13 -19 22 -19 22 4 8 12 -8 22 -17 22 -21z m-445 12 c-3 -5 -12
-10 -18 -10 -7 0 -6 4 3 10 19 12 23 12 15 0z m75 4 c0 0 -9 -9 -20 -19 -20
-18 -21 -18 -15 1 6 16 3 15 -14 -5 -12 -13 -24 -41 -27 -62 l-7 -39 -51 0
-51 1 68 63 c48 45 76 63 93 62 13 0 24 -1 24 -2z m385 -59 l70 -64 -51 -1
-51 0 -7 38 c-3 22 -15 51 -27 65 -35 46 -7 29 66 -38z m-275 25 c0 -5 -5 -10
-11 -10 -5 0 -7 5 -4 10 3 6 8 10 11 10 2 0 4 -4 4 -10z m30 0 c0 -5 -4 -10
-10 -10 -5 0 -10 5 -10 10 0 6 5 10 10 10 6 0 10 -4 10 -10z m-12 -29 c-3 -29
6 -49 30 -63 15 -8 32 -13 39 -11 6 2 14 0 17 -5 3 -5 -5 -8 -17 -7 -12 1 -47
-1 -77 -5 -49 -6 -46 -7 33 -7 48 0 89 -2 91 -4 3 -2 -4 -15 -14 -29 -16 -22
-20 -23 -37 -10 -17 14 -17 14 -4 -3 18 -23 7 -34 -16 -16 -9 8 -14 9 -10 3
12 -21 -25 -25 -70 -8 -33 13 -49 27 -64 56 l-20 38 23 10 c13 5 17 9 9 9 -11
1 -9 6 5 23 12 13 13 18 4 13 -13 -8 -13 -6 -2 8 13 15 82 22 80 8z m352 -67
c0 -9 5 -12 12 -8 6 4 8 3 5 -4 -4 -5 -15 -9 -25 -7 -9 2 -21 4 -26 4 -5 1 -3
8 4 16 9 11 8 21 -10 47 l-22 33 31 -33 c17 -18 31 -39 31 -48z m-138 10 l15
-31 -29 -1 c-28 -1 -29 0 -14 17 10 11 14 25 10 37 -10 27 0 15 18 -22z m-389
-31 c-6 -2 -9 -14 -6 -26 4 -20 3 -20 -11 3 -8 14 -11 26 -6 28 4 2 6 13 3 25
-5 21 -5 21 13 -2 11 -15 14 -26 7 -28z m-147 30 c-3 -4 4 -13 16 -21 18 -10
19 -12 3 -6 -11 4 -29 6 -40 6 -20 -1 -20 -1 -1 14 20 15 35 19 22 7z m442
-21 c6 -18 -15 -14 -22 4 -4 10 -1 14 6 12 6 -2 14 -10 16 -16z m-284 -78 c3
-8 2 -12 -4 -9 -6 3 -10 10 -10 16 0 14 7 11 14 -7z m356 -8 c0 -2 -8 -10 -17
-17 -16 -13 -17 -12 -4 4 13 16 21 21 21 13z m-327 -49 c-3 -5 -2 -8 3 -4 5 3
18 -1 28 -9 17 -12 17 -14 3 -20 -10 -3 -25 -3 -34 2 -10 4 -22 6 -26 5 -4 -1
-3 8 3 19 6 11 8 26 4 33 -5 8 -2 7 9 -2 9 -7 14 -18 10 -24z"/>
<path d="M1970 3416 c0 -2 7 -7 16 -10 8 -3 12 -2 9 4 -6 10 -25 14 -25 6z"/>
<path d="M1995 3340 c10 -11 20 -20 23 -20 3 0 -3 9 -13 20 -10 11 -20 20 -23
20 -3 0 3 -9 13 -20z"/>
<path d="M1796 3215 c4 -8 8 -15 10 -15 2 0 4 7 4 15 0 8 -4 15 -10 15 -5 0
-7 -7 -4 -15z"/>
<path d="M852 3425 c0 -16 2 -22 5 -12 2 9 2 23 0 30 -3 6 -5 -1 -5 -18z"/>
<path d="M2406 3415 c8 -37 14 -45 14 -19 0 10 -5 26 -10 34 -8 11 -9 7 -4
-15z"/>
<path d="M2191 3394 c0 -11 3 -14 6 -6 3 7 2 16 -1 19 -3 4 -6 -2 -5 -13z"/>
<path d="M1520 3390 c0 -5 5 -10 11 -10 5 0 7 5 4 10 -3 6 -8 10 -11 10 -2 0
-4 -4 -4 -10z"/>
<path d="M3146 3368 c3 -5 10 -6 15 -3 13 9 11 12 -6 12 -8 0 -12 -4 -9 -9z"/>
<path d="M3050 3361 c0 -6 4 -12 8 -15 5 -3 9 1 9 9 0 8 -4 15 -9 15 -4 0 -8
-4 -8 -9z"/>
<path d="M854 3240 c0 -69 1 -97 3 -62 2 34 2 90 0 125 -2 34 -3 6 -3 -63z"/>
<path d="M2471 3343 c-1 -12 4 -25 9 -28 12 -7 12 2 0 30 -8 19 -9 19 -9 -2z"/>
<path d="M1526 3342 c-3 -5 1 -9 9 -9 8 0 12 4 9 9 -3 4 -7 8 -9 8 -2 0 -6 -4
-9 -8z"/>
<path d="M2476 3283 c-4 -9 -3 -20 2 -25 6 -6 10 1 10 16 0 30 -3 32 -12 9z"/>
<path d="M1521 3136 c-10 -11 -9 -14 1 -12 14 2 23 15 15 22 -2 2 -10 -2 -16
-10z"/>
<path d="M962 3105 c0 -16 2 -22 5 -12 2 9 2 23 0 30 -3 6 -5 -1 -5 -18z"/>
<path d="M1097 3097 c-6 -17 113 -135 131 -130 6 3 12 16 12 29 0 15 -4 23
-10 19 -6 -4 -8 -11 -5 -16 8 -12 -2 -11 -26 2 -11 5 -17 14 -14 20 4 5 3 9
-2 8 -20 -4 -33 2 -33 15 0 8 -7 17 -16 20 -8 3 -12 10 -9 16 3 5 1 10 -5 10
-6 0 -8 5 -5 10 3 6 2 10 -3 10 -6 0 -12 -6 -15 -13z"/>
<path d="M1619 3077 c6 -8 7 -18 3 -22 -4 -5 -1 -5 6 -1 10 6 10 11 1 22 -6 8
-14 14 -16 14 -3 0 0 -6 6 -13z"/>
<path d="M2520 3068 c0 -8 7 -23 15 -34 17 -23 19 -66 4 -81 -7 -7 -8 -24 -4
-42 8 -36 20 -48 22 -21 1 11 -3 22 -8 26 -6 4 -4 15 5 29 14 21 14 29 0 74
-14 48 -34 77 -34 49z"/>
<path d="M2861 3058 c-1 -16 4 -28 9 -28 12 0 12 8 0 35 -8 18 -9 17 -9 -7z"/>
<path d="M975 3060 c3 -5 11 -10 16 -10 6 0 7 5 4 10 -3 6 -11 10 -16 10 -6 0
-7 -4 -4 -10z"/>
<path d="M1658 3053 c7 -3 16 -2 19 1 4 3 -2 6 -13 5 -11 0 -14 -3 -6 -6z"/>
<path d="M1010 3046 c0 -2 7 -6 15 -10 8 -3 15 -1 15 4 0 6 -7 10 -15 10 -8 0
-15 -2 -15 -4z"/>
<path d="M1694 3041 c7 -11 46 -35 46 -28 0 3 -12 12 -26 22 -15 9 -23 12 -20
6z"/>
<path d="M1265 3000 c-5 -22 -1 -39 14 -63 11 -17 21 -27 21 -20 0 6 -5 15
-10 18 -8 5 -7 11 1 21 10 12 9 13 -5 8 -18 -7 -21 8 -6 36 6 11 6 21 1 24 -5
4 -12 -7 -16 -24z"/>
<path d="M1548 3024 c-12 -12 3 -119 19 -136 12 -14 32 -18 80 -18 56 0 63 2
63 20 0 18 -7 20 -60 20 l-60 0 -1 43 c-1 23 -2 49 -3 57 -1 15 -27 25 -38 14z"/>
<path d="M2230 2987 c0 -72 -4 -77 -71 -77 -52 0 -59 -2 -59 -20 0 -18 7 -20
70 -20 62 0 71 3 85 24 22 33 17 129 -7 134 -15 3 -18 -4 -18 -41z"/>
<path d="M2443 3008 c-2 -18 0 -20 7 -8 12 18 13 30 2 30 -4 0 -9 -10 -9 -22z"/>
<path d="M1756 2992 c-6 -10 30 -9 40 1 4 4 -2 7 -14 7 -11 0 -23 -4 -26 -8z"/>
<path d="M2015 2990 c-3 -6 1 -7 9 -4 18 7 21 14 7 14 -6 0 -13 -4 -16 -10z"/>
<path d="M881 2974 c0 -11 3 -14 6 -6 3 7 2 16 -1 19 -3 4 -6 -2 -5 -13z"/>
<path d="M1513 2955 c-3 -9 -3 -18 -1 -21 3 -3 8 4 11 16 6 23 -1 27 -10 5z"/>
<path d="M2405 2949 c-4 -6 -5 -12 -2 -15 2 -3 7 2 10 11 7 17 1 20 -8 4z"/>
<path d="M882 2920 c0 -14 2 -19 5 -12 2 6 2 18 0 25 -3 6 -5 1 -5 -13z"/>
<path d="M1427 2895 c-6 -15 10 -32 20 -21 4 3 1 6 -5 6 -6 0 -9 7 -6 15 4 8
4 15 1 15 -3 0 -7 -7 -10 -15z"/>
<path d="M2941 2894 c0 -11 3 -14 6 -6 3 7 2 16 -1 19 -3 4 -6 -2 -5 -13z"/>
<path d="M1514 2889 c-4 -7 -3 -9 4 -5 5 3 12 0 15 -6 2 -7 7 -10 11 -7 4 3 0
12 -8 18 -11 9 -16 9 -22 0z"/>
<path d="M880 2886 c0 -2 7 -7 16 -10 8 -3 12 -2 9 4 -6 10 -25 14 -25 6z"/>
<path d="M2390 2870 c0 -5 5 -10 11 -10 5 0 7 5 4 10 -3 6 -8 10 -11 10 -2 0
-4 -4 -4 -10z"/>
<path d="M2085 2850 c3 -5 8 -10 11 -10 2 0 4 5 4 10 0 6 -5 10 -11 10 -5 0
-7 -4 -4 -10z"/>
<path d="M2376 2841 c-3 -5 0 -11 7 -14 8 -3 14 1 14 9 0 16 -13 19 -21 5z"/>
<path d="M2418 2843 c9 -3 10 -9 3 -17 -7 -8 10 -31 55 -78 35 -36 64 -63 65
-59 0 3 2 14 4 24 3 14 0 16 -9 8 -17 -14 -29 -2 -15 15 7 9 6 12 -8 9 -10 -1
-23 2 -30 7 -15 12 -5 40 11 31 6 -4 5 1 -3 10 -7 9 -17 15 -21 12 -4 -3 -15
6 -24 20 -9 14 -22 25 -29 24 -9 0 -9 -2 1 -6z m18 -22 c-6 -10 23 -26 39 -22
6 1 4 -3 -2 -10 -10 -10 -17 -9 -33 6 -17 15 -19 35 -4 35 3 0 3 -4 0 -9z"/>
<path d="M1359 2786 c-113 -93 -206 -247 -244 -404 -22 -91 -15 -122 25 -122
32 0 31 -2 55 105 8 39 34 108 57 155 35 69 60 102 136 179 86 86 93 96 83
117 -16 36 -41 29 -112 -30z m96 25 c3 -6 -4 -15 -15 -21 -11 -6 -18 -15 -15
-20 4 -6 -1 -7 -11 -3 -13 5 -16 3 -11 -10 3 -9 3 -16 -1 -16 -19 3 -28 -3
-40 -30 -9 -21 -18 -28 -29 -24 -11 4 -14 2 -9 -5 3 -6 -3 -16 -14 -22 -11 -6
-18 -15 -15 -20 3 -5 -3 -15 -14 -21 -10 -7 -17 -18 -15 -24 8 -20 -19 -35
-34 -19 -7 8 -8 14 -3 14 6 0 7 7 4 17 -5 12 -3 14 7 8 10 -6 12 -4 7 8 -3 10
-2 17 3 17 6 0 10 5 10 10 0 17 84 95 98 92 8 -2 11 1 8 7 -6 10 -3 14 44 51
28 22 36 24 45 11z m-227 -253 c15 -15 16 -31 0 -22 -7 5 -9 2 -6 -8 4 -8 -2
-21 -13 -28 -10 -8 -15 -17 -10 -20 5 -3 4 -16 -1 -30 -6 -15 -12 -20 -15 -12
-11 28 -18 8 -19 -55 -2 -94 -5 -103 -27 -103 -17 0 -18 2 -6 17 10 11 10 14
2 9 -20 -11 -16 23 12 105 14 41 27 85 29 99 2 13 9 26 15 28 6 2 11 10 11 18
0 17 12 18 28 2z"/>
<path d="M1385 2769 c-4 -6 -5 -12 -2 -15 2 -3 7 2 10 11 7 17 1 20 -8 4z"/>
<path d="M1290 2671 c0 -7 -4 -9 -10 -6 -5 3 -10 1 -10 -4 0 -6 4 -11 9 -11
13 0 25 20 17 27 -3 4 -6 1 -6 -6z"/>
<path d="M1266 2628 c3 -5 10 -6 15 -3 13 9 11 12 -6 12 -8 0 -12 -4 -9 -9z"/>
<path d="M1558 2833 c7 -3 16 -2 19 1 4 3 -2 6 -13 5 -11 0 -14 -3 -6 -6z"/>
<path d="M2140 2831 c0 -6 4 -13 10 -16 6 -3 7 1 4 9 -7 18 -14 21 -14 7z"/>
<path d="M1580 2816 c0 -2 7 -7 16 -10 8 -3 12 -2 9 4 -6 10 -25 14 -25 6z"/>
<path d="M2332 2804 c-31 -21 -28 -39 13 -69 53 -41 139 -152 179 -233 39 -77
76 -203 76 -259 0 -47 16 -73 44 -73 29 0 36 16 36 79 0 114 -68 294 -154 408
-43 56 -151 163 -166 163 -3 0 -16 -7 -28 -16z m61 -29 c16 -14 25 -30 22 -35
-3 -6 5 -14 18 -19 31 -12 108 -102 102 -119 -3 -8 0 -10 6 -6 8 5 10 -3 7
-24 -3 -23 -1 -29 7 -22 7 6 16 -1 28 -23 31 -60 37 -86 27 -113 -9 -21 -8
-25 4 -21 17 7 29 -15 32 -58 1 -16 3 -30 4 -30 8 0 8 -55 0 -60 -8 -5 -7 -11
1 -21 9 -11 9 -18 1 -26 -20 -20 -31 3 -36 72 -5 65 -28 153 -45 174 -4 6 -14
29 -21 51 -7 22 -19 48 -27 57 -8 9 -12 22 -7 29 4 7 3 10 -3 6 -6 -4 -23 10
-39 30 -15 20 -23 33 -17 30 7 -4 15 -2 19 4 4 8 3 9 -4 5 -7 -4 -32 12 -59
39 -27 26 -43 45 -38 42 6 -3 12 4 12 16 2 16 0 18 -6 8 -5 -8 -16 -11 -25 -8
-18 7 -22 27 -5 27 5 0 7 -5 3 -12 -4 -7 -3 -8 5 -4 9 6 9 11 0 22 -19 23 4
15 34 -11z"/>
<path d="M2444 2702 c3 -5 0 -13 -6 -15 -9 -4 -10 -6 -1 -6 17 -1 25 16 12 25
-7 4 -9 3 -5 -4z"/>
<path d="M907 2773 c-4 -3 -7 -11 -7 -17 0 -6 5 -5 12 2 6 6 9 14 7 17 -3 3
-9 2 -12 -2z"/>
<path d="M1139 2753 c-13 -16 -12 -17 4 -4 9 7 17 15 17 17 0 8 -8 3 -21 -13z"/>
<path d="M1494 2759 c-3 -6 -1 -16 5 -22 9 -9 10 -7 5 7 -6 15 -4 17 6 11 9
-5 11 -4 6 3 -9 15 -13 15 -22 1z"/>
<path d="M2296 2731 c-9 -14 23 -36 35 -24 8 8 7 13 -2 18 -8 6 -10 4 -4 -5 5
-8 3 -11 -6 -8 -8 3 -13 11 -11 17 2 13 -5 15 -12 2z"/>
<path d="M1495 2693 c-73 -53 -152 -148 -190 -228 -30 -63 -65 -194 -65 -243
0 -26 -39 -60 -74 -64 -36 -4 -55 -31 -40 -55 7 -12 26 -19 55 -21 88 -5 130
43 149 170 22 152 94 283 202 369 64 50 72 63 58 89 -15 28 -38 24 -95 -17z
m71 -5 c-1 -15 -7 -23 -19 -22 -9 1 -15 -2 -12 -6 2 -4 -5 -16 -17 -26 -15
-13 -19 -14 -14 -4 4 8 -4 2 -17 -14 -18 -21 -26 -25 -31 -15 -3 8 -3 4 0 -8
3 -13 1 -23 -4 -23 -6 0 -19 -15 -31 -32 -11 -18 -26 -42 -33 -53 -7 -11 -19
-25 -27 -31 -8 -6 -11 -16 -8 -21 4 -6 0 -13 -8 -17 -8 -3 -15 -10 -15 -16 0
-6 4 -9 9 -6 11 7 -11 -70 -23 -81 -5 -5 -6 -2 -1 6 5 9 3 12 -6 9 -10 -4 -13
-22 -12 -72 3 -68 -10 -112 -27 -101 -6 3 -7 -1 -4 -9 7 -18 -37 -48 -68 -47
-46 1 -58 5 -58 17 0 8 6 11 15 8 8 -4 15 -2 15 3 0 5 9 9 21 10 21 2 21 2 3
-20 l-19 -22 22 18 c12 11 19 25 17 32 -3 7 4 19 16 25 18 10 21 9 15 -1 -5
-8 -4 -10 4 -5 7 5 9 16 5 28 -3 11 -2 18 2 15 5 -3 10 23 12 56 2 34 10 75
18 91 7 16 14 35 14 43 0 7 5 13 11 13 6 0 9 6 6 14 -3 8 3 31 14 52 10 21 19
32 20 24 0 -8 5 0 10 18 5 18 14 30 19 27 6 -4 10 1 10 11 0 14 3 14 15 4 13
-11 14 -10 9 3 -6 17 33 77 50 77 6 0 4 -5 -4 -11 -13 -9 -13 -10 0 -6 8 2 15
11 15 21 0 24 47 46 71 33 17 -9 17 -9 6 5 -10 13 -10 17 0 21 7 3 14 6 14 6
1 1 1 -9 0 -21z"/>
<path d="M1225 2120 c-3 -6 1 -7 9 -4 18 7 21 14 7 14 -6 0 -13 -4 -16 -10z"/>
<path d="M2187 2713 c-17 -16 -2 -39 77 -117 125 -124 185 -264 186 -434 0
-107 32 -153 120 -173 47 -11 75 0 83 31 7 28 -18 50 -58 50 -52 0 -61 17 -68
127 -11 207 -102 384 -251 494 -37 28 -75 37 -89 22z m108 -71 c0 -6 4 -14 9
-19 5 -5 6 -2 1 6 -5 9 -3 12 6 9 8 -3 14 -12 14 -21 0 -8 4 -19 9 -24 5 -4 6
-3 2 5 -12 20 8 14 21 -7 9 -15 9 -23 -2 -37 -13 -17 -14 -17 -15 -2 0 9 6 19
13 21 9 4 9 6 0 6 -6 1 -15 -4 -18 -9 -3 -6 -18 4 -33 21 -14 18 -43 44 -65
60 -21 15 -34 30 -28 33 5 3 12 -1 15 -10 4 -9 9 -14 13 -11 3 4 13 1 22 -6
14 -11 14 -10 2 5 -7 10 -17 15 -22 12 -5 -3 -9 2 -9 12 0 14 5 13 33 -8 17
-14 32 -30 32 -36z m98 -110 c-2 -15 2 -20 12 -16 11 5 13 2 8 -12 -4 -12 -3
-15 5 -10 8 4 10 2 6 -7 -3 -8 4 -24 16 -35 12 -11 20 -26 17 -34 -2 -7 2 -20
9 -28 15 -18 32 -123 32 -201 0 -42 7 -70 27 -108 15 -28 29 -51 32 -51 2 0 1
4 -2 10 -3 5 9 9 29 8 19 -1 33 -5 30 -10 -3 -4 1 -8 8 -8 7 0 5 -5 -6 -11
-41 -25 -140 17 -115 48 9 11 8 12 -5 7 -18 -7 -18 -7 -22 81 -2 66 -28 195
-44 226 -6 10 -8 19 -4 19 3 0 1 6 -5 14 -9 11 -9 15 1 19 10 4 11 7 1 18 -11
11 -13 11 -13 -1 0 -8 -13 5 -29 30 -21 34 -26 50 -19 63 12 24 34 16 31 -11z"/>
<path d="M2436 2387 c3 -10 9 -15 12 -12 3 3 0 11 -7 18 -10 9 -11 8 -5 -6z"/>
<path d="M2456 2353 c-6 -14 -5 -15 5 -6 7 7 10 15 7 18 -3 3 -9 -2 -12 -12z"/>
<path d="M2564 2696 c4 -12 2 -23 -6 -28 -11 -6 -10 -8 0 -8 7 0 10 -5 6 -12
-4 -6 -3 -8 4 -5 11 8 9 53 -3 65 -5 4 -5 -2 -1 -12z"/>
<path d="M1377 2662 c-15 -16 -15 -19 -2 -19 8 0 13 3 10 5 -3 3 0 11 6 19 17
20 5 16 -14 -5z"/>
<path d="M1758 2655 c-67 -18 -174 -81 -224 -130 -85 -85 -120 -164 -140 -312
-19 -143 -42 -172 -159 -203 -53 -14 -60 -18 -63 -43 -9 -75 158 -42 235 46
38 44 58 100 71 203 24 186 128 308 306 359 167 49 366 -37 459 -196 38 -65
58 -176 50 -283 -7 -103 10 -159 63 -205 62 -55 194 -79 228 -42 29 32 7 57
-57 64 -79 10 -109 23 -136 62 -22 33 -23 41 -17 133 11 176 -32 300 -144 412
-68 69 -157 120 -240 139 -60 14 -174 12 -232 -4z m217 -15 c29 -12 21 -13
-122 -9 -29 1 -53 6 -53 10 0 11 149 10 175 -1z m-7 -22 c70 1 92 -3 124 -21
28 -16 37 -27 34 -41 -4 -14 -2 -16 7 -7 14 14 30 14 21 0 -4 -8 1 -9 17 -5
13 3 18 3 11 0 -18 -8 -4 -24 15 -17 11 4 14 3 9 -5 -4 -7 -2 -12 4 -12 7 0 9
-7 6 -15 -3 -9 -1 -15 7 -14 23 3 40 -1 34 -8 -4 -3 4 -21 18 -39 14 -18 25
-37 24 -41 -1 -4 -1 -15 0 -23 1 -12 3 -12 10 -2 6 10 10 4 16 -20 4 -18 7
-37 6 -42 -1 -5 4 -13 10 -17 17 -10 26 -189 11 -189 -7 0 -9 -14 -6 -37 3
-21 6 -50 6 -66 -1 -15 3 -25 8 -22 5 3 11 -4 15 -15 3 -11 10 -20 15 -20 5 0
7 -8 4 -17 -4 -13 -3 -14 3 -5 10 13 46 6 38 -8 -3 -4 1 -8 8 -7 6 0 26 -1 42
-2 25 -2 27 -4 11 -10 -19 -7 -19 -8 2 -13 13 -4 22 -1 23 5 0 8 2 8 6 0 2 -7
11 -13 19 -13 9 0 12 5 8 12 -4 7 -3 8 4 4 6 -4 8 -14 5 -22 -6 -17 -58 -17
-80 -1 -7 5 -13 6 -13 2 0 -4 -7 -2 -15 5 -11 9 -15 9 -15 1 0 -8 -11 -6 -32
5 -80 41 -95 77 -97 234 -2 153 -6 197 -20 214 -6 8 -8 22 -4 31 4 12 3 16 -4
12 -13 -8 -26 20 -16 35 3 6 2 8 -4 5 -5 -3 -22 10 -39 30 -49 60 -77 88 -87
88 -5 0 -14 7 -20 15 -7 8 -21 16 -31 18 -11 2 -29 10 -42 19 -23 15 -31 17
-114 27 -25 4 -56 9 -68 12 -13 2 -21 1 -19 -3 3 -4 -7 -9 -22 -10 -15 -1 -47
-9 -71 -17 -27 -9 -50 -12 -60 -6 -9 5 -22 5 -31 -1 -12 -8 -12 -9 1 -7 9 2
16 -1 17 -7 1 -5 -4 -9 -12 -7 -7 1 -16 -6 -20 -17 -4 -12 -12 -18 -21 -14 -7
3 -14 0 -14 -7 0 -7 -6 -10 -14 -7 -8 3 -13 -1 -12 -11 0 -9 -6 -17 -14 -17
-16 0 -39 -24 -39 -40 0 -5 4 -2 10 8 5 9 15 17 21 17 6 0 -1 -11 -16 -25 -14
-13 -26 -29 -26 -35 0 -6 -6 -13 -14 -16 -8 -3 -14 -13 -14 -22 1 -9 -6 -33
-14 -52 -9 -19 -19 -66 -22 -105 -4 -38 -7 -76 -8 -82 -1 -7 -8 -13 -15 -13
-10 0 -13 -9 -9 -30 2 -16 -1 -33 -6 -36 -7 -4 -8 -2 -4 4 4 7 5 12 1 12 -3 0
-10 -12 -15 -26 -6 -15 -14 -22 -22 -18 -8 5 -9 2 -5 -10 5 -14 3 -15 -13 -6
-16 9 -18 8 -13 -6 5 -14 2 -16 -20 -10 -22 5 -25 3 -22 -13 4 -23 -4 -27 -67
-30 -38 -2 -48 1 -48 13 0 10 9 16 24 16 13 0 40 7 60 15 20 8 39 15 42 14 4
0 10 5 15 13 5 7 14 13 20 13 6 0 19 11 28 25 13 20 13 23 1 15 -16 -9 14 31
39 52 12 11 12 15 0 30 -9 11 -10 14 -1 9 8 -5 12 1 12 19 0 15 -4 24 -10 20
-6 -4 -10 5 -10 20 0 14 3 24 8 22 4 -3 8 7 8 21 2 25 10 63 14 70 3 3 7 19 9
33 0 5 6 7 11 4 12 -8 29 35 22 54 -3 9 -1 12 6 7 7 -4 12 -1 12 8 0 19 49 58
64 49 6 -4 6 0 -2 9 -10 12 -10 18 2 27 8 6 18 10 24 9 5 -2 24 12 41 30 17
17 39 32 49 32 10 0 22 4 28 9 10 11 126 20 158 13 11 -3 58 -4 104 -4z"/>
<path d="M2290 2341 c0 -5 5 -13 10 -16 6 -3 10 -2 10 4 0 5 -4 13 -10 16 -5
3 -10 2 -10 -4z"/>
<path d="M2193 2625 c0 -8 4 -12 9 -9 5 3 6 10 3 15 -9 13 -12 11 -12 -6z"/>
<path d="M966 2615 c-3 -8 -1 -15 4 -15 6 0 10 7 10 15 0 8 -2 15 -4 15 -2 0
-6 -7 -10 -15z"/>
<path d="M1335 2592 c-5 -4 -12 -16 -13 -27 -4 -23 0 -20 17 13 12 24 12 26
-4 14z"/>
<path d="M2225 2591 c-3 -5 -2 -12 3 -15 5 -3 9 1 9 9 0 17 -3 19 -12 6z"/>
<path d="M1006 2547 c3 -10 9 -15 12 -12 3 3 0 11 -7 18 -10 9 -11 8 -5 -6z"/>
<path d="M2272 2555 c4 -4 3 -14 -3 -21 -10 -13 6 -32 18 -20 4 3 1 6 -7 6
-10 0 -10 3 -1 14 9 11 9 16 -1 22 -7 4 -10 4 -6 -1z"/>
<path d="M2641 2534 c0 -11 3 -14 6 -6 3 7 2 16 -1 19 -3 4 -6 -2 -5 -13z"/>
<path d="M1788 2533 c7 -3 16 -2 19 1 4 3 -2 6 -13 5 -11 0 -14 -3 -6 -6z"/>
<path d="M2030 2520 c-8 -5 -12 -12 -9 -15 4 -3 12 1 19 10 14 17 11 19 -10 5z"/>
<path d="M1021 2504 c0 -11 3 -14 6 -6 3 7 2 16 -1 19 -3 4 -6 -2 -5 -13z"/>
<path d="M1827 2509 c-166 -27 -286 -174 -287 -350 0 -79 -27 -138 -94 -205
-47 -47 -76 -65 -126 -84 -80 -28 -84 -32 -76 -64 5 -21 13 -26 36 -26 46 0
136 38 189 80 90 72 134 156 151 288 15 112 26 145 70 195 52 59 113 88 184
88 112 0 198 -51 242 -145 22 -47 24 -64 24 -214 0 -144 2 -167 21 -207 40
-85 131 -147 250 -170 60 -11 72 -11 84 2 34 34 2 67 -76 78 -70 10 -143 57
-175 111 -26 44 -27 48 -21 167 10 237 -40 349 -189 425 -35 18 -59 24 -139
36 -11 2 -41 0 -68 -5z m106 -20 c15 1 27 -4 27 -9 0 -6 4 -9 10 -5 5 3 17 2
27 -3 10 -6 31 -16 46 -23 15 -7 49 -33 75 -58 26 -24 40 -41 32 -36 -12 6
-13 5 -3 -5 10 -11 10 -17 0 -29 -6 -8 -7 -12 -2 -9 15 9 31 -3 40 -31 5 -16
4 -21 -4 -17 -7 5 -9 1 -5 -8 3 -9 11 -13 17 -9 6 3 7 1 3 -6 -4 -6 -3 -17 2
-24 5 -7 10 -39 10 -72 0 -45 -2 -54 -8 -35 -6 17 -7 4 -5 -40 2 -36 2 -57 -1
-47 -3 9 -10 15 -15 11 -6 -3 -4 -15 5 -29 9 -13 13 -30 11 -38 -3 -7 1 -30
10 -50 9 -21 13 -42 10 -48 -4 -5 -3 -9 2 -8 22 4 33 -3 33 -21 0 -11 7 -23
15 -26 8 -4 13 -10 10 -14 -3 -4 2 -11 11 -14 9 -4 13 -2 8 5 -4 7 -3 10 2 7
5 -2 24 -10 42 -17 33 -13 41 -26 20 -34 -7 -2 -1 -4 14 -3 14 0 24 4 21 9 -2
4 0 7 6 7 5 0 11 -5 13 -12 2 -6 19 -11 36 -10 18 0 30 -3 27 -8 -3 -4 1 -11
7 -13 8 -3 4 -6 -7 -7 -35 -4 -70 2 -83 12 -7 6 -15 8 -19 5 -9 -10 -77 22
-95 46 -10 12 -18 16 -18 9 0 -7 -13 0 -30 15 -17 15 -28 33 -25 40 2 8 1 11
-4 8 -12 -7 -26 33 -22 64 2 16 -1 21 -10 15 -8 -5 -11 -2 -6 8 3 9 1 20 -5
26 -7 7 -6 16 1 30 6 10 7 22 4 26 -9 9 -3 103 8 133 5 15 5 22 0 18 -6 -3 -9
13 -8 39 1 24 -1 42 -5 39 -5 -2 -9 1 -9 6 -1 6 -2 14 -4 19 -14 51 -18 61
-26 56 -5 -3 -9 1 -9 8 0 8 -7 23 -16 34 -8 10 -12 12 -8 4 4 -8 -4 -4 -18 10
-38 37 -58 52 -58 43 0 -4 -5 -2 -12 5 -7 7 -20 12 -31 12 -10 0 -16 4 -13 8
3 5 -17 7 -44 4 -34 -3 -55 0 -67 9 -14 12 -16 12 -8 0 6 -11 4 -13 -8 -8 -10
3 -17 3 -17 -2 0 -14 -42 -21 -62 -10 -21 11 -15 31 7 22 8 -3 15 0 15 7 0 7
8 10 20 7 11 -3 18 -1 15 3 -3 5 8 8 25 8 17 -1 33 2 37 6 4 4 14 4 22 0 9 -4
28 -6 44 -5z m-183 -71 c0 -7 -6 -9 -25 -8 -3 1 -13 -6 -21 -15 -9 -8 -19 -13
-23 -11 -4 3 -8 0 -8 -7 0 -11 -48 -92 -63 -107 -3 -3 -6 -18 -7 -35 -5 -116
-14 -178 -28 -204 -8 -17 -15 -34 -14 -37 0 -4 -5 -10 -13 -15 -7 -5 -13 -14
-13 -20 0 -20 -33 -35 -46 -22 -8 8 -4 21 15 49 14 21 26 44 26 51 0 7 5 13
10 13 6 0 10 8 10 18 0 10 2 21 5 24 3 3 7 41 9 84 4 96 32 166 49 122 3 -7 4
3 3 22 -1 23 3 34 11 33 7 -2 10 4 7 12 -4 8 1 17 10 21 9 3 14 10 11 14 -3 5
10 14 29 21 19 7 32 17 29 22 -3 4 4 3 16 -5 12 -7 21 -16 21 -20z m-257 -495
c9 -9 -42 -55 -54 -47 -5 3 -7 10 -4 15 3 5 -1 6 -9 3 -16 -6 -30 -34 -17 -34
5 0 11 5 13 12 3 9 6 9 11 0 7 -10 -37 -41 -60 -43 -5 -1 -17 -6 -28 -12 -32
-18 -85 -18 -85 -1 0 8 3 14 8 15 4 0 18 2 30 3 13 2 28 9 33 17 5 8 9 10 9 6
0 -4 26 10 58 32 55 39 82 48 95 34z"/>
<path d="M2030 2440 c0 -5 5 -10 11 -10 5 0 7 5 4 10 -3 6 -8 10 -11 10 -2 0
-4 -4 -4 -10z"/>
<path d="M2226 1809 c3 -5 9 -7 14 -4 4 3 11 0 13 -5 3 -6 4 -5 3 1 -1 7 -10
13 -19 15 -9 1 -15 -2 -11 -7z"/>
<path d="M1550 2035 c-7 -9 -11 -17 -9 -20 3 -2 10 5 17 15 14 24 10 26 -8 5z"/>
<path d="M2100 2490 c-8 -5 -12 -12 -9 -15 4 -3 12 1 19 10 14 17 11 19 -10 5z"/>
<path d="M2133 2466 c0 -8 3 -15 6 -14 19 2 22 -4 10 -19 -13 -17 -13 -17 5
-3 18 14 19 13 12 -5 -6 -16 -5 -18 6 -7 10 10 7 17 -13 38 -18 18 -26 21 -26
10z"/>
<path d="M1930 2406 c0 -2 7 -6 15 -10 8 -3 15 -1 15 4 0 6 -7 10 -15 10 -8 0
-15 -2 -15 -4z"/>
<path d="M2366 2377 c3 -10 9 -15 12 -12 3 3 0 11 -7 18 -10 9 -11 8 -5 -6z"/>
<path d="M1739 2363 c-12 -16 -12 -17 1 -7 8 6 22 14 30 17 13 5 12 6 -1 6 -9
1 -23 -7 -30 -16z"/>
<path d="M1070 2350 c0 -5 5 -10 10 -10 6 0 10 5 10 10 0 6 -4 10 -10 10 -5 0
-10 -4 -10 -10z"/>
<path d="M1805 2341 c-66 -30 -115 -115 -115 -201 0 -42 -27 -145 -50 -189
-38 -75 -124 -156 -214 -201 -47 -24 -86 -49 -86 -56 0 -54 39 -57 139 -9 162
78 291 274 291 442 0 90 47 153 114 153 75 -1 106 -45 107 -153 2 -210 -122
-443 -312 -587 -68 -51 -84 -68 -84 -89 0 -41 44 -40 109 3 58 38 196 169 196
186 0 20 16 9 95 -68 75 -72 182 -142 219 -142 18 0 38 33 31 52 -3 7 -27 25
-53 40 -124 71 -228 180 -217 228 4 14 9 37 12 53 7 37 16 34 32 -10 8 -22 45
-69 90 -113 65 -65 87 -80 149 -103 83 -31 114 -33 132 -12 21 25 2 54 -43 66
-112 30 -204 105 -254 207 -28 56 -28 60 -25 211 3 159 -1 187 -41 244 -43 62
-143 84 -222 48z m150 -13 c11 -2 20 -10 20 -18 0 -8 5 -15 12 -15 6 0 22 -13
35 -30 22 -29 23 -35 22 -210 -1 -99 1 -182 5 -185 4 -3 15 -21 24 -41 9 -20
23 -42 32 -49 8 -7 12 -16 9 -21 -3 -5 -1 -9 5 -9 5 0 12 -9 16 -20 3 -11 10
-19 15 -17 4 1 8 -1 9 -5 3 -22 0 -28 -11 -22 -7 4 -8 3 -4 -4 4 -7 15 -8 29
-3 17 7 29 4 48 -11 13 -11 18 -17 12 -13 -9 4 -11 1 -7 -10 4 -10 10 -12 18
-7 6 6 23 4 41 -3 26 -11 27 -13 10 -19 -12 -3 -8 -4 8 -2 30 4 32 -11 3 -28
-13 -9 -20 -7 -30 7 -9 11 -20 15 -32 11 -16 -5 -16 -4 -4 5 13 9 11 11 -7 11
-12 0 -28 7 -36 15 -8 8 -17 12 -20 9 -7 -7 -87 75 -87 89 0 5 10 2 23 -9 l22
-19 -18 22 c-11 12 -25 19 -33 16 -8 -3 -17 3 -20 13 -4 11 -17 33 -30 50 -13
17 -20 35 -16 39 4 4 -3 3 -15 -4 -12 -6 -23 -8 -26 -3 -2 4 -2 2 -1 -5 2 -7
-1 -15 -6 -18 -5 -3 -6 -13 -3 -22 4 -10 2 -14 -4 -10 -6 4 -14 0 -17 -9 -3
-8 -2 -12 4 -9 6 3 7 -1 4 -10 -4 -9 -10 -13 -14 -8 -16 16 -14 50 4 91 19 41
20 42 40 25 13 -11 16 -12 9 -3 -15 20 -14 63 2 135 8 33 16 92 18 130 4 62 1
75 -22 113 -27 44 -97 82 -122 67 -7 -5 -10 -4 -6 2 4 6 0 14 -9 17 -8 3 -12
2 -9 -4 3 -6 1 -10 -4 -10 -13 0 -14 13 -4 24 7 7 42 5 118 -6z m-150 -28 c3
-5 13 -6 23 -3 9 4 3 -5 -15 -20 -19 -16 -37 -25 -47 -21 -22 8 -20 25 4 31
11 3 17 9 14 14 -3 5 -1 9 5 9 5 0 12 -4 16 -10z m-40 -89 c-4 -20 -11 -38
-15 -41 -5 -3 -7 -20 -5 -38 2 -18 1 -31 -3 -28 -5 3 -14 -5 -22 -17 -12 -20
-12 -21 4 -8 22 19 24 14 14 -37 -6 -26 -13 -40 -20 -36 -7 5 -8 2 -4 -5 5 -7
0 -18 -10 -27 -18 -14 -18 -14 0 -7 17 6 16 1 -7 -38 -15 -24 -30 -42 -33 -41
-8 4 -24 -18 -24 -33 0 -5 5 -3 10 5 5 8 10 11 10 6 0 -5 -26 -35 -57 -66 -39
-37 -65 -55 -78 -52 -16 2 -17 1 -5 -7 13 -9 13 -11 -2 -11 -10 0 -18 -5 -18
-11 0 -6 -7 -8 -16 -5 -8 3 -13 2 -10 -2 2 -4 -16 -16 -42 -26 -36 -15 -47
-17 -50 -7 -4 11 -6 11 -13 0 -7 -11 -9 -11 -9 3 0 18 52 34 72 22 10 -6 10
-4 0 8 -12 15 -9 18 27 29 23 7 39 14 37 17 -3 2 9 16 25 29 16 14 33 23 36
19 4 -3 0 -6 -8 -6 -12 0 -11 -2 1 -11 13 -9 12 -10 -2 -5 -10 3 -20 1 -22 -3
-3 -5 5 -8 17 -7 17 1 22 7 23 31 2 41 2 41 16 27 7 -7 17 -12 23 -12 5 0 4 4
-4 9 -10 7 -11 13 -2 30 7 12 16 19 20 17 4 -3 14 10 21 29 8 19 17 35 22 35
4 0 7 3 6 8 -3 13 14 62 21 58 3 -2 7 16 8 41 1 24 6 50 12 57 6 8 8 27 4 46
-4 24 -3 31 5 26 8 -5 13 2 14 21 0 15 2 33 3 38 2 6 3 13 4 17 0 4 8 5 17 1
12 -4 14 -14 9 -42z m153 -447 c-3 -3 4 -16 16 -29 38 -42 71 -86 71 -96 0 -5
5 -10 10 -10 6 -1 16 -10 24 -21 10 -15 10 -23 2 -31 -14 -14 -48 4 -43 23 1
6 -1 9 -6 6 -12 -7 -44 33 -36 46 4 7 3 8 -4 4 -7 -4 -12 -3 -12 2 0 5 -9 12
-20 15 -11 3 -18 1 -14 -4 5 -8 -10 -13 -30 -10 -5 1 -6 -5 -3 -13 7 -17 -27
-51 -42 -42 -5 4 -13 1 -17 -5 -5 -8 -3 -9 5 -4 7 4 5 -4 -4 -19 -10 -14 -24
-26 -31 -26 -8 0 -14 -7 -14 -15 0 -8 -5 -15 -11 -15 -6 0 -18 -9 -27 -21 -18
-21 -52 -18 -52 5 0 14 38 38 50 31 5 -3 12 0 16 6 4 8 3 9 -4 5 -7 -4 -12 -4
-12 -1 0 8 50 57 51 50 1 -3 2 -9 3 -14 0 -5 4 -13 8 -16 4 -4 5 5 2 20 -6 33
29 77 55 68 13 -4 13 -3 2 5 -11 8 -10 14 5 35 11 14 27 28 37 30 9 3 17 11
17 19 0 10 -3 9 -10 -2 -5 -8 -10 -10 -10 -4 0 10 20 34 29 34 2 0 2 -3 -1 -6z
m428 -160 c-5 -14 -4 -15 9 -4 9 8 15 8 15 2 0 -6 -5 -14 -10 -17 -6 -4 -7
-11 -4 -17 4 -6 -2 -6 -15 1 -18 10 -19 14 -8 31 14 24 21 26 13 4z m-257 -45
c11 -12 24 -18 30 -14 6 3 11 1 11 -4 0 -6 7 -11 16 -11 8 0 12 -4 9 -10 -6
-9 8 -14 28 -11 4 0 7 -4 7 -9 0 -6 -12 -8 -27 -5 -27 5 -27 5 -4 -5 16 -7 27
-7 36 0 19 15 26 -2 10 -23 -10 -15 -15 -15 -27 -5 -7 7 -34 24 -60 37 -26 12
-49 30 -52 38 -3 8 -10 12 -15 9 -7 -5 -8 11 -2 32 3 8 23 -1 40 -19z m-424
-105 c-20 -15 -55 -19 -55 -7 0 4 12 20 27 35 28 29 28 29 37 7 8 -17 6 -24
-9 -35z"/>
<path d="M1910 2316 c0 -2 7 -6 15 -10 8 -3 15 -1 15 4 0 6 -7 10 -15 10 -8 0
-15 -2 -15 -4z"/>
<path d="M1987 2276 c-8 -20 28 -52 39 -34 4 7 4 10 -1 6 -12 -11 -35 11 -28
28 3 8 3 14 0 14 -3 0 -7 -6 -10 -14z"/>
<path d="M2036 1829 c3 -5 10 -6 16 -3 8 5 9 1 5 -10 -4 -11 -3 -15 4 -11 14
10 6 28 -14 31 -9 1 -15 -2 -11 -7z"/>
<path d="M2080 1781 c0 -6 4 -13 10 -16 6 -3 7 1 4 9 -7 18 -14 21 -14 7z"/>
<path d="M1930 1713 c0 -5 12 -20 28 -34 l27 -24 -25 30 c-14 17 -26 32 -27
34 -2 2 -3 0 -3 -6z"/>
<path d="M1845 1630 c-3 -5 -1 -10 4 -10 6 0 11 5 11 10 0 6 -2 10 -4 10 -3 0
-8 -4 -11 -10z"/>
<path d="M2060 1563 c0 -6 8 -17 18 -24 16 -13 16 -13 2 6 -8 11 -16 22 -17
24 -2 2 -3 0 -3 -6z"/>
<path d="M2027 2343 c-3 -5 5 -17 16 -28 l20 -20 -11 21 c-6 12 -8 24 -5 28 3
3 1 6 -5 6 -6 0 -13 -3 -15 -7z"/>
<path d="M1216 2311 c4 -23 3 -31 -5 -27 -7 5 -8 1 -4 -10 6 -15 7 -15 15 0 6
11 5 27 -1 44 -10 26 -10 25 -5 -7z"/>
<path d="M1699 2323 c-13 -16 -12 -17 4 -4 9 7 17 15 17 17 0 8 -8 3 -21 -13z"/>
<path d="M2095 2260 c3 -5 8 -10 11 -10 2 0 4 5 4 10 0 6 -5 10 -11 10 -5 0
-7 -4 -4 -10z"/>
<path d="M1095 2250 c6 -10 4 -12 -11 -6 -15 6 -17 5 -6 -5 9 -9 15 -10 23 -2
8 8 7 13 -2 18 -8 6 -10 4 -4 -5z"/>
<path d="M1926 2252 c2 -3 -4 -11 -14 -19 -16 -12 -16 -13 1 -7 11 4 16 2 14
-7 -2 -8 -2 -11 0 -6 3 4 8 5 13 2 12 -7 6 23 -7 34 -5 5 -8 6 -7 3z"/>
<path d="M1206 2238 c3 -5 10 -6 15 -3 13 9 11 12 -6 12 -8 0 -12 -4 -9 -9z"/>
<path d="M1829 2233 c-13 -16 -12 -17 4 -4 9 7 17 15 17 17 0 8 -8 3 -21 -13z"/>
<path d="M2555 2211 c-8 -26 1 -41 23 -40 15 1 15 2 0 6 -10 2 -18 12 -18 21
0 15 2 15 10 2 5 -8 10 -10 10 -5 0 6 -4 16 -9 24 -7 11 -10 9 -16 -8z"/>
<path d="M1857 2193 c-3 -4 -8 -35 -12 -68 -27 -235 -143 -412 -326 -501 -40
-20 -62 -36 -65 -52 -7 -24 10 -52 31 -52 25 0 150 72 203 117 136 116 237
331 230 490 -3 65 -4 68 -30 71 -14 2 -28 0 -31 -5z m38 -23 c-3 -5 0 -10 7
-10 9 0 9 -3 -2 -10 -10 -7 -11 -10 -2 -10 8 0 10 -8 7 -22 -3 -13 -7 -39 -9
-58 -2 -19 -7 -50 -12 -69 l-7 -35 -13 45 c-16 51 -17 62 -6 56 4 -3 7 18 6
46 -1 51 9 77 28 77 5 0 6 -4 3 -10z m-35 -218 c0 -24 -7 -57 -16 -73 -15 -29
-16 -30 -30 -12 -13 16 -13 15 -3 -10 14 -32 6 -45 -16 -27 -17 14 -21 35 -4
25 6 -4 9 -1 8 6 -5 22 12 60 22 53 6 -3 9 0 8 7 -2 8 1 34 5 58 10 53 26 37
26 -27z m-66 -137 c7 -19 -3 -47 -14 -40 -5 3 -12 -4 -15 -16 -4 -11 -22 -36
-40 -55 -29 -29 -35 -32 -45 -18 -11 12 -9 19 11 40 12 13 28 23 35 20 7 -3
11 3 9 12 -2 18 31 72 45 72 4 0 10 -7 14 -15z m-114 -153 c0 -12 -38 -41 -44
-35 -3 4 -6 1 -6 -5 0 -6 -16 -16 -34 -23 -19 -7 -33 -16 -30 -21 3 -4 -2 -8
-11 -8 -9 0 -27 -7 -40 -16 -14 -9 -26 -15 -26 -13 -8 21 -3 49 8 53 9 4 12 1
7 -7 -4 -6 2 -4 13 6 11 9 23 14 26 10 4 -3 7 -1 7 7 0 10 4 10 17 -1 15 -12
16 -12 10 4 -5 13 -1 17 14 17 11 0 18 4 14 9 -8 15 14 24 29 12 9 -8 13 -7
13 4 0 8 -4 12 -9 9 -9 -6 -11 10 -2 19 8 7 44 -10 44 -21z"/>
<path d="M1956 2187 c3 -10 9 -15 12 -12 3 3 0 11 -7 18 -10 9 -11 8 -5 -6z"/>
<path d="M2555 2149 c-4 -6 -5 -12 -2 -15 2 -3 7 2 10 11 7 17 1 20 -8 4z"/>
<path d="M1661 2124 c0 -11 3 -14 6 -6 3 7 2 16 -1 19 -3 4 -6 -2 -5 -13z"/>
<path d="M2263 2080 c0 -25 2 -35 4 -22 2 12 2 32 0 45 -2 12 -4 2 -4 -23z"/>
<path d="M1090 2090 c0 -19 3 -21 12 -12 9 9 9 15 0 24 -9 9 -12 7 -12 -12z"/>
<path d="M2402 2090 c0 -14 2 -19 5 -12 2 6 2 18 0 25 -3 6 -5 1 -5 -13z"/>
<path d="M2677 2069 c7 -7 15 -10 18 -7 3 3 -2 9 -12 12 -14 6 -15 5 -6 -5z"/>
<path d="M1480 2041 c0 -7 -5 -9 -12 -5 -7 5 -8 3 -3 -5 5 -9 10 -10 18 -2 6
6 8 14 4 18 -4 3 -7 1 -7 -6z"/>
<path d="M2445 2030 c-4 -6 -1 -10 5 -10 6 0 9 -4 5 -9 -3 -5 0 -13 6 -17 8
-5 9 -3 4 6 -6 10 -4 12 8 7 22 -8 21 -5 -3 15 -11 10 -22 13 -25 8z"/>
<path d="M2256 2003 c-6 -14 -5 -15 5 -6 7 7 10 15 7 18 -3 3 -9 -2 -12 -12z"/>
<path d="M2401 2004 c0 -11 3 -14 6 -6 3 7 2 16 -1 19 -3 4 -6 -2 -5 -13z"/>
<path d="M2431 1981 c-8 -5 -9 -11 -3 -15 5 -3 12 1 16 9 6 17 6 18 -13 6z"/>
<path d="M2091 1964 c0 -11 3 -14 6 -6 3 7 2 16 -1 19 -3 4 -6 -2 -5 -13z"/>
<path d="M2241 1964 c0 -11 3 -14 6 -6 3 7 2 16 -1 19 -3 4 -6 -2 -5 -13z"/>
<path d="M2263 1965 c0 -8 4 -12 9 -9 4 3 8 9 8 15 0 5 -4 9 -8 9 -5 0 -9 -7
-9 -15z"/>
<path d="M2711 1954 c0 -11 3 -14 6 -6 3 7 2 16 -1 19 -3 4 -6 -2 -5 -13z"/>
<path d="M1136 1943 c-4 -9 -4 -14 0 -10 4 4 14 1 23 -6 14 -11 15 -10 1 8 -8
11 -15 21 -16 23 -1 2 -5 -5 -8 -15z"/>
<path d="M2538 1953 c7 -3 16 -2 19 1 4 3 -2 6 -13 5 -11 0 -14 -3 -6 -6z"/>
<path d="M2255 1920 c-4 -6 -1 -9 6 -8 6 2 14 -3 17 -11 3 -8 0 -11 -7 -7 -7
5 -8 1 -4 -10 4 -11 8 -13 11 -6 2 7 8 10 13 6 5 -3 4 6 -3 20 -12 28 -23 33
-33 16z"/>
<path d="M1278 1913 c7 -3 16 -2 19 1 4 3 -2 6 -13 5 -11 0 -14 -3 -6 -6z"/>
<path d="M2317 1863 c7 -2 9 -12 6 -21 -6 -18 -5 -17 14 8 10 13 8 16 -10 17
-12 0 -17 -1 -10 -4z"/>
<path d="M1205 1759 c-5 -8 -4 -10 3 -5 8 5 12 -1 12 -15 0 -18 3 -20 12 -11
10 10 9 16 -4 28 -12 12 -17 13 -23 3z"/>
<path d="M1623 1745 c0 -8 4 -12 9 -9 5 3 6 10 3 15 -9 13 -12 11 -12 -6z"/>
<path d="M2213 1747 c0 -7 9 -14 20 -14 11 -1 18 -1 16 0 -2 2 -11 8 -20 15
-12 9 -16 9 -16 -1z"/>
<path d="M2245 1720 c-16 -7 -17 -9 -3 -9 9 -1 20 4 23 9 7 11 7 11 -20 0z"/>
<path d="M2360 1660 c-9 -6 -10 -10 -3 -10 6 0 15 5 18 10 8 12 4 12 -15 0z"/>
<path d="M2385 1651 c-3 -2 -2 -7 0 -11 6 -9 45 -1 45 9 0 7 -38 9 -45 2z"/>
<path d="M2096 1634 c-5 -14 -4 -15 9 -4 17 14 19 20 6 20 -5 0 -12 -7 -15
-16z"/>
<path d="M1281 1614 c0 -11 3 -14 6 -6 3 7 2 16 -1 19 -3 4 -6 -2 -5 -13z"/>
<path d="M1393 1620 c-34 -14 -28 -21 7 -9 17 6 30 13 30 15 0 6 -12 4 -37 -6z"/>
<path d="M1910 1624 c0 -6 9 -19 20 -29 11 -10 17 -22 14 -27 -3 -4 0 -7 7 -6
7 2 13 -2 14 -9 0 -6 3 -14 7 -18 3 -4 6 0 4 8 -2 18 -65 96 -66 81z"/>
<path d="M1305 1610 c5 -8 42 -6 50 1 2 3 -8 5 -25 5 -16 0 -27 -3 -25 -6z"/>
<path d="M2320 1520 c-9 -6 -10 -10 -3 -10 6 0 15 5 18 10 8 12 4 12 -15 0z"/>
<path d="M1817 1503 c3 -7 6 -13 8 -13 2 0 5 6 8 13 3 8 -1 14 -8 14 -7 0 -11
-6 -8 -14z"/>
<path d="M1440 1490 c0 -12 26 -19 39 -10 9 5 4 9 -13 12 -14 3 -26 2 -26 -2z"/>
<path d="M1822 1456 c-67 -50 -85 -82 -56 -103 10 -7 23 -13 30 -13 10 0 62
35 74 51 5 6 46 29 53 29 2 0 28 -18 57 -40 61 -45 63 -46 84 -24 23 23 20 33
-21 72 -92 87 -134 92 -221 28z m184 -23 c24 -21 44 -43 44 -50 0 -20 -34 -15
-50 7 -8 11 -20 20 -27 20 -6 0 -14 4 -17 9 -3 4 6 7 20 5 14 -1 23 0 19 4 -3
4 -18 7 -33 7 -15 0 -33 4 -39 8 -8 5 -13 4 -13 -2 0 -6 -5 -11 -12 -11 -7 0
-26 -14 -44 -31 -29 -28 -64 -33 -48 -7 4 6 1 9 -7 6 -8 -3 -13 -13 -12 -23 1
-13 -2 -14 -10 -6 -8 8 -5 18 14 37 14 14 32 26 41 27 8 2 27 13 42 25 38 29
75 22 132 -25z"/>
<path d="M1990 1496 c0 -2 7 -7 16 -10 8 -3 12 -2 9 4 -6 10 -25 14 -25 6z"/>
<path d="M2060 1481 c0 -5 5 -13 10 -16 6 -3 10 -2 10 4 0 5 -4 13 -10 16 -5
3 -10 2 -10 -4z"/>
<path d="M2087 1457 c-3 -7 3 -13 14 -13 13 0 15 3 7 13 -6 7 -12 13 -13 13
-2 0 -5 -6 -8 -13z"/>
<path d="M1560 1433 c0 -12 28 -38 34 -32 2 2 -5 13 -15 23 -11 11 -19 15 -19
9z"/>
<path d="M1536 1376 c3 -9 13 -16 22 -16 8 0 13 1 11 3 -2 1 -12 9 -22 16 -15
12 -17 12 -11 -3z"/>
<path d="M2119 1353 c-13 -16 -12 -17 4 -4 9 7 17 15 17 17 0 8 -8 3 -21 -13z"/>
<path d="M1718 1330 c-11 -19 -13 -29 -5 -27 7 1 11 -7 10 -18 -1 -18 0 -18
10 -4 7 9 19 18 27 22 12 4 12 6 -2 6 -10 1 -18 11 -20 26 l-3 25 -17 -30z"/>
<path d="M1975 1340 c3 -5 14 -10 23 -10 15 0 15 2 2 10 -20 13 -33 13 -25 0z"/>
<path d="M1996 1292 c-3 -5 1 -9 9 -9 8 0 12 4 9 9 -3 4 -7 8 -9 8 -2 0 -6 -4
-9 -8z"/>
<path d="M1760 1049 c0 -5 19 -9 42 -9 23 0 39 2 37 5 -9 8 -79 12 -79 4z"/>
<path d="M1868 1043 c7 -3 16 -2 19 1 4 3 -2 6 -13 5 -11 0 -14 -3 -6 -6z"/>
<path d="M1920 1046 c0 -2 7 -6 15 -10 8 -3 15 -1 15 4 0 6 -7 10 -15 10 -8 0
-15 -2 -15 -4z"/>
</g>
</svg>
